<svg width="1244" height="484" xmlns="http://www.w3.org/2000/svg" xmlns:xlink="http://www.w3.org/1999/xlink" overflow="hidden"><defs><clipPath id="clip0"><rect x="54" y="30" width="1244" height="484"/></clipPath></defs><g clip-path="url(#clip0)" transform="translate(-54 -30)"><path d="M136.5 62.5001 1091.31 62.5002" stroke="#001A46" stroke-width="1.33333" stroke-linejoin="round" stroke-miterlimit="10" fill="none" fill-rule="evenodd"/><path d="M96.5001 132.5 1110.47 132.5" stroke="#001A46" stroke-width="1.33333" stroke-linejoin="round" stroke-miterlimit="10" fill="none" fill-rule="evenodd"/><rect x="577" y="112" width="92" height="41" fill="#4FABE3"/><text fill="#FFFFFF" font-family="Arial,Arial_MSFontService,sans-serif" font-weight="400" font-size="13" transform="translate(607.358 129)">Chirp<tspan font-size="13" x="-19.3333" y="16">Sequence 0</tspan></text><rect x="672" y="112" width="93" height="41" fill="#A3A3A3"/><text fill="#FFFFFF" font-family="Arial,Arial_MSFontService,sans-serif" font-weight="400" font-size="13" transform="translate(689.056 129)">RFE Idle /<tspan font-size="13" x="3.33331" y="16">Reconfig</tspan></text><rect x="482" y="112" width="92" height="41" fill="#A3A3A3"/><text fill="#FFFFFF" font-family="Arial,Arial_MSFontService,sans-serif" font-weight="400" font-size="13" transform="translate(489.243 137)">Recalibration</text><rect x="151" y="113" width="92" height="40" fill="#A3A3A3"/><text fill="#FFFFFF" font-family="Arial,Arial_MSFontService,sans-serif" font-weight="400" font-size="13" transform="translate(173.322 130)">Start-up<tspan font-size="13" x="-11.5" y="16">Calibrations</tspan></text><rect x="56" y="113" width="92" height="40" fill="#A3A3A3"/><text fill="#FFFFFF" font-family="Arial,Arial_MSFontService,sans-serif" font-weight="400" font-size="13" transform="translate(66.9576 138)">Initialization</text><rect x="349" y="113" width="92" height="40" fill="#A3A3A3"/><text fill="#FFFFFF" font-family="Arial,Arial_MSFontService,sans-serif" font-weight="400" font-size="13" transform="translate(355.246 130)">Configuration<tspan font-size="13" x="4.33334" y="16">Calibrations</tspan></text><rect x="253" y="113" width="92" height="40" fill="#A3A3A3"/><text fill="#FFFFFF" font-family="Arial,Arial_MSFontService,sans-serif" font-weight="400" font-size="13" transform="translate(270.544 130)">Customer<tspan font-size="13" x="-10.58" y="16">Configuration</tspan></text><rect x="870" y="112" width="93" height="41" fill="#1A48AA"/><text fill="#FFFFFF" font-family="Arial,Arial_MSFontService,sans-serif" font-weight="400" font-size="13" transform="translate(900.628 129)">Chirp<tspan font-size="13" x="-19.3333" y="16">Sequence 1</tspan></text><rect x="966" y="112" width="92" height="41" fill="#A3A3A3"/><text fill="#FFFFFF" font-family="Arial,Arial_MSFontService,sans-serif" font-weight="400" font-size="13" transform="translate(997.076 137)">BIST</text><rect x="775" y="112" width="92" height="41" fill="#A3A3A3"/><text fill="#FFFFFF" font-family="Arial,Arial_MSFontService,sans-serif" font-weight="400" font-size="13" transform="translate(782.513 137)">Recalibration</text><rect x="1062" y="112" width="92" height="41" fill="#A3A3A3"/><text fill="#FFFFFF" font-family="Arial,Arial_MSFontService,sans-serif" font-weight="400" font-size="13" transform="translate(1078.5 129)">RFE Idle /<tspan font-size="13" x="3.33325" y="16">Reconfig</tspan></text><rect x="55" y="42" width="187" height="40" fill="#7030A0"/><text fill="#FFFFFF" font-family="Arial,Arial_MSFontService,sans-serif" font-weight="400" font-size="13" transform="translate(125.046 67)">Start-up</text><rect x="253" y="42" width="187" height="40" fill="#7030A0"/><text fill="#FFFFFF" font-family="Arial,Arial_MSFontService,sans-serif" font-weight="400" font-size="13" transform="translate(291.807 67)">RFE Configuration</text><rect x="482" y="42" width="109" height="40" fill="#7030A0"/><text fill="#FFFFFF" font-family="Arial,Arial_MSFontService,sans-serif" font-weight="400" font-size="13" transform="translate(494.475 67)">Radar Cycle 0</text><rect x="597" y="42" width="109" height="40" fill="#7030A0"/><text fill="#FFFFFF" font-family="Arial,Arial_MSFontService,sans-serif" font-weight="400" font-size="13" transform="translate(609.205 67)">Radar Cycle 1</text><rect x="711" y="42" width="110" height="40" fill="#7030A0"/><text fill="#FFFFFF" font-family="Arial,Arial_MSFontService,sans-serif" font-weight="400" font-size="13" transform="translate(723.935 67)">Radar Cycle 2</text><rect x="826" y="42" width="109" height="40" fill="#7030A0"/><text fill="#FFFFFF" font-family="Arial,Arial_MSFontService,sans-serif" font-weight="400" font-size="13" transform="translate(838.666 67)">Radar Cycle 3</text><rect x="941" y="42" width="109" height="40" fill="#7030A0"/><text fill="#FFFFFF" font-family="Arial,Arial_MSFontService,sans-serif" font-weight="400" font-size="13" transform="translate(953.396 67)">Radar Cycle 4</text><path d="M0 0 63.846 0.000104987" stroke="#001A46" stroke-width="1.33333" stroke-linejoin="round" stroke-miterlimit="10" stroke-dasharray="5.33333 4" fill="none" fill-rule="evenodd" transform="matrix(-1 0 0 1 1155.35 62.5001)"/><text font-family="Arial,Arial_MSFontService,sans-serif" font-weight="400" font-size="13" transform="translate(1108.69 48)">time</text><path d="M1107.5 50.8334 1144.85 50.8335 1144.85 52.1668 1107.5 52.1667ZM1143.51 47.5001 1151.51 51.5002 1143.51 55.5001Z"/><path d="M0 0 0.000104987 30.4823" stroke="#49A8E2" stroke-width="1.33333" stroke-linejoin="round" stroke-miterlimit="10" stroke-dasharray="1.33333 1.33333" fill="none" fill-rule="evenodd" transform="matrix(1 0 0 -1 55.5001 112.982)"/><path d="M243.5 82.5001 243.5 112.982" stroke="#49A8E2" stroke-width="1.33333" stroke-linejoin="round" stroke-miterlimit="10" stroke-dasharray="1.33333 1.33333" fill="none" fill-rule="evenodd"/><path d="M0 0 0.000104987 30.4824" stroke="#49A8E2" stroke-width="1.33333" stroke-linejoin="round" stroke-miterlimit="10" stroke-dasharray="1.33333 1.33333" fill="none" fill-rule="evenodd" transform="matrix(1 0 0 -1 253.5 112.982)"/><path d="M440.5 82.5001 440.5 112.982" stroke="#49A8E2" stroke-width="1.33333" stroke-linejoin="round" stroke-miterlimit="10" stroke-dasharray="1.33333 1.33333" fill="none" fill-rule="evenodd"/><path d="M0 0 0.000104987 30.4936" stroke="#49A8E2" stroke-width="1.33333" stroke-linejoin="round" stroke-miterlimit="10" stroke-dasharray="1.33333 1.33333" fill="none" fill-rule="evenodd" transform="matrix(1 0 0 -1 482.5 112.994)"/><path d="M1153.86 112.994 587.5 82.5" stroke="#49A8E2" stroke-width="1.33333" stroke-linejoin="round" stroke-miterlimit="10" stroke-dasharray="1.33333 1.33333" fill="none" fill-rule="evenodd"/><path d="M483.5 186.833 861.211 186.833 861.211 188.167 483.5 188.167ZM859.878 183.5 867.878 187.5 859.878 191.5Z"/><text font-family="Arial,Arial_MSFontService,sans-serif" font-weight="400" font-size="13" transform="translate(483.436 182)">Chirp sequence 1 start time offset</text><path d="M483.5 213.833 1146.68 213.833 1146.68 215.167 483.5 215.167ZM1145.34 210.5 1153.34 214.5 1145.34 218.5Z"/><text font-family="Arial,Arial_MSFontService,sans-serif" font-weight="400" font-size="13" transform="translate(483.436 208)">Radar cycle duration</text><path d="M0 0 0.000104987 61.236" stroke="#49A8E2" stroke-width="1.33333" stroke-linejoin="round" stroke-miterlimit="10" stroke-dasharray="1.33333 1.33333" fill="none" fill-rule="evenodd" transform="matrix(1 0 0 -1 482.5 214.736)"/><path d="M0 0 0.000104987 61.236" stroke="#49A8E2" stroke-width="1.33333" stroke-linejoin="round" stroke-miterlimit="10" stroke-dasharray="1.33333 1.33333" fill="none" fill-rule="evenodd" transform="matrix(1 0 0 -1 1153.5 213.736)"/><path d="M0 0 0.000104987 35.4894" stroke="#49A8E2" stroke-width="1.33333" stroke-linejoin="round" stroke-miterlimit="10" stroke-dasharray="1.33333 1.33333" fill="none" fill-rule="evenodd" transform="matrix(1 0 0 -1 867.5 187.99)"/><rect x="833.5" y="279.5" width="271" height="106" stroke="#000000" stroke-width="0.333333" stroke-linejoin="round" stroke-miterlimit="10" fill="none"/><text font-family="Arial,Arial_MSFontService,sans-serif" font-weight="400" font-size="11" transform="translate(842.687 294)">Update chirp sequence 0 in the next radar cycle</text><path d="M842.687 294.532 899.687 294.532 956.687 294.532 1013.69 294.532 1070.69 294.532 1070.69 295.532 1013.69 295.532 956.687 295.532 899.687 295.532 842.687 295.532Z" fill-rule="evenodd"/><text font-family="Arial,Arial_MSFontService,sans-serif" font-weight="400" font-size="11" transform="translate(842.687 315)">•<tspan font-size="11" x="18" y="0">Profile Index containing specific parameters e.g.:</tspan><tspan font-size="11" x="48.0001" y="21">•</tspan><tspan font-size="11" x="66.0001" y="21">effectiveChirpBandwidth</tspan><tspan font-size="11" x="48.0001" y="42">•</tspan><tspan font-size="11" x="66.0001" y="42">dwellTimeTicks</tspan><tspan font-size="11" x="48.0001" y="63">•</tspan><tspan font-size="11" x="66.0001" y="63">centerFrequency</tspan></text><rect x="833.5" y="385.5" width="271" height="128" stroke="#000000" stroke-width="0.333333" stroke-linejoin="round" stroke-miterlimit="10" fill="none"/><text font-family="Arial,Arial_MSFontService,sans-serif" font-weight="400" font-size="11" transform="translate(842.687 400)">Update chirp sequence <tspan font-size="11" x="113.5" y="0">1 </tspan>in the next radar cycle</text><path d="M842.687 401.198 899.687 401.198 956.687 401.198 1013.69 401.198 1070.69 401.198 1070.69 402.198 1013.69 402.198 956.687 402.198 899.687 402.198 842.687 402.198Z" fill-rule="evenodd"/><text font-family="Arial,Arial_MSFontService,sans-serif" font-weight="400" font-size="11" transform="translate(842.687 421)">•<tspan font-size="11" x="18" y="0">chirpSequenceStartTimeOffset</tspan><tspan font-size="11" x="0" y="21">•</tspan><tspan font-size="11" x="18" y="21">Profile </tspan><tspan font-size="11" x="51.3334" y="21">Index containing specific parameters e.g.:</tspan><tspan font-size="11" x="48.0001" y="42">•</tspan><tspan font-size="11" x="66.0001" y="42">effectiveChirpBandwidth</tspan><tspan font-size="11" x="48.0001" y="63">•</tspan><tspan font-size="11" x="66.0001" y="63">dwellTimeTicks</tspan><tspan font-size="11" x="48.0001" y="83">•</tspan><tspan font-size="11" x="66.0001" y="83">centerFrequency</tspan></text><rect x="1115.5" y="279.5" width="182" height="22" stroke="#000000" stroke-width="0.333333" stroke-linejoin="round" stroke-miterlimit="10" fill="none"/><text font-family="Arial,Arial_MSFontService,sans-serif" font-weight="400" font-size="11" transform="translate(1125.07 294)">Update <tspan font-size="11" x="37.6667" y="0">next radar cycle start time</tspan></text><path d="M1125.07 294.532 1165.07 294.532 1205.07 294.532 1245.07 294.532 1285.07 294.532 1285.07 295.532 1245.07 295.532 1205.07 295.532 1165.07 295.532 1125.07 295.532Z" fill-rule="evenodd"/><path d="M1086.17 153.5 1086.17 157.5 1084.83 157.5 1084.83 153.5ZM1086.17 158.833 1086.17 162.833 1084.83 162.833 1084.83 158.833ZM1086.17 164.167 1086.17 168.167 1084.83 168.167 1084.83 164.167ZM1086.17 169.5 1086.17 173.5 1084.83 173.5 1084.83 169.5ZM1086.17 174.833 1086.17 178.833 1084.83 178.833 1084.83 174.833ZM1086.17 180.167 1086.17 184.167 1084.83 184.167 1084.83 180.167ZM1086.17 185.5 1086.17 189.5 1084.83 189.5 1084.83 185.5ZM1086.17 190.833 1086.17 194.833 1084.83 194.833 1084.83 190.833ZM1086.17 196.167 1086.17 200.167 1084.83 200.167 1084.83 196.167ZM1086.17 201.5 1086.17 205.5 1084.83 205.5 1084.83 201.5ZM1086.17 206.833 1086.17 210.833 1084.83 210.833 1084.83 206.833ZM1086.17 212.167 1086.17 216.167 1084.83 216.167 1084.83 212.167ZM1086.17 217.5 1086.17 221.5 1084.83 221.5 1084.83 217.5ZM1086.17 222.833 1086.17 226.833 1084.83 226.833 1084.83 222.833ZM1086.17 228.167 1086.17 232.167 1084.83 232.167 1084.83 228.167ZM1086.17 233.5 1086.17 237.5 1084.83 237.5 1084.83 233.5ZM1086.17 238.833 1086.17 242.833 1084.83 242.833 1084.83 238.833ZM1086.17 244.167 1086.17 248.167 1084.83 248.167 1084.83 244.167ZM1086.17 249.5 1086.17 253.5 1084.83 253.5 1084.83 249.5ZM1086.17 254.833 1086.17 258.833 1084.83 258.833 1084.83 254.833ZM1086.17 260.167 1086.17 264.167 1084.83 264.167 1084.83 260.167ZM1086.17 265.5 1086.17 269.5 1084.83 269.5 1084.83 265.5ZM1086.17 270.833 1086.17 272.455 1084.83 272.455 1084.83 270.833ZM1089.5 271.122 1085.5 279.122 1081.5 271.122Z"/><path d="M1133.17 153.5 1133.17 157.5 1131.83 157.5 1131.83 153.5ZM1133.17 158.833 1133.17 162.833 1131.83 162.833 1131.83 158.833ZM1133.17 164.167 1133.17 168.167 1131.83 168.167 1131.83 164.167ZM1133.17 169.5 1133.17 173.5 1131.83 173.5 1131.83 169.5ZM1133.17 174.833 1133.17 178.833 1131.83 178.833 1131.83 174.833ZM1133.17 180.167 1133.17 184.167 1131.83 184.167 1131.83 180.167ZM1133.17 185.5 1133.17 189.5 1131.83 189.5 1131.83 185.5ZM1133.17 190.833 1133.17 194.833 1131.83 194.833 1131.83 190.833ZM1133.17 196.167 1133.17 200.167 1131.83 200.167 1131.83 196.167ZM1133.17 201.5 1133.17 205.5 1131.83 205.5 1131.83 201.5ZM1133.17 206.833 1133.17 210.833 1131.83 210.833 1131.83 206.833ZM1133.17 212.167 1133.17 216.167 1131.83 216.167 1131.83 212.167ZM1133.17 217.5 1133.17 221.5 1131.83 221.5 1131.83 217.5ZM1133.17 222.833 1133.17 226.833 1131.83 226.833 1131.83 222.833ZM1133.17 228.167 1133.17 232.167 1131.83 232.167 1131.83 228.167ZM1133.17 233.5 1133.17 237.5 1131.83 237.5 1131.83 233.5ZM1133.17 238.833 1133.17 242.833 1131.83 242.833 1131.83 238.833ZM1133.17 244.167 1133.17 248.167 1131.83 248.167 1131.83 244.167ZM1133.17 249.5 1133.17 253.5 1131.83 253.5 1131.83 249.5ZM1133.17 254.833 1133.17 258.833 1131.83 258.833 1131.83 254.833ZM1133.17 260.167 1133.17 264.167 1131.83 264.167 1131.83 260.167ZM1133.17 265.5 1133.17 269.5 1131.83 269.5 1131.83 265.5ZM1133.17 270.833 1133.17 272.455 1131.83 272.455 1131.83 270.833ZM1136.5 271.122 1132.5 279.122 1128.5 271.122Z"/></g></svg>