<svg width="1280" height="720" xmlns="http://www.w3.org/2000/svg" xmlns:xlink="http://www.w3.org/1999/xlink" overflow="hidden"><defs><clipPath id="clip0"><rect x="0" y="0" width="1280" height="720"/></clipPath></defs><g clip-path="url(#clip0)"><rect x="0" y="0" width="1280" height="720" fill="#FFFFFF"/><rect x="875" y="249" width="154" height="205" fill="#DCEE99"/><rect x="888.5" y="358.5" width="133" height="69" stroke="#000000" stroke-linejoin="round" stroke-miterlimit="10" fill="none"/><text font-family="Arial,Arial_MSFontService,sans-serif" font-weight="400" font-size="13" transform="translate(917.671 376)">Program the <tspan font-size="13" x="-14" y="16">calibrated LUT[1] </tspan><tspan font-size="13" x="-9.08002" y="32">for sequence[1]</tspan></text><path d="M944 322.5 948.5 318 953 322.5 950.75 322.5 950.75 358 946.25 358 946.25 322.5Z" fill="#4FABE3" fill-rule="evenodd"/><path d="M923.594 258.737 970.094 258.737 970.094 274.737 923.594 274.737Z" fill="#FFFF00" fill-rule="evenodd"/><path d="M898.26 284.737 995.427 284.737 995.427 300.737 898.26 300.737Z" fill="#FFFF00" fill-rule="evenodd"/><text font-family="Arial,Arial_MSFontService,sans-serif" font-weight="700" font-size="15" transform="translate(923.594 272)">LF BW<tspan font-size="15" x="-25.3334" y="26">REPROGRAM</tspan></text><rect x="498" y="248" width="155" height="205" fill="#DCEE99"/><rect x="254" y="115" width="171" height="303" fill="#DCEE99"/><rect x="89" y="264" width="124" height="205" fill="#FFEBCE"/><path d="M29.5001 315 1257.21 315 1257.21 316 29.5001 316ZM1255.87 311.5 1263.87 315.5 1255.87 319.5Z" fill="#49A8E2"/><path d="M660 316 683 248 706 316Z" fill="#4FABE3" fill-rule="evenodd"/><text fill="#FFFFFF" font-family="Arial,Arial_MSFontService,sans-serif" font-weight="400" font-size="13" transform="translate(682.7 312)">0</text><path d="M745 316 768 248 791 316Z" fill="#4FABE3" fill-rule="evenodd"/><text fill="#FFFFFF" font-family="Arial,Arial_MSFontService,sans-serif" font-weight="400" font-size="13" transform="translate(768.147 312)">0</text><path d="M831 316 854 248 877 316Z" fill="#4FABE3" fill-rule="evenodd"/><text fill="#FFFFFF" font-family="Arial,Arial_MSFontService,sans-serif" font-weight="400" font-size="13" transform="translate(853.593 312)">0</text><path d="M1028 316 1051 248 1074 316Z" fill="#FFC000" fill-rule="evenodd"/><text fill="#FFFFFF" font-family="Arial,Arial_MSFontService,sans-serif" font-weight="400" font-size="13" transform="translate(1050.94 312)">1</text><path d="M1113 316 1136 248 1159 316Z" fill="#FFC000" fill-rule="evenodd"/><text fill="#FFFFFF" font-family="Arial,Arial_MSFontService,sans-serif" font-weight="400" font-size="13" transform="translate(1136.39 312)">1</text><path d="M1199 316 1222 248 1245 316Z" fill="#FFC000" fill-rule="evenodd"/><text fill="#FFFFFF" font-family="Arial,Arial_MSFontService,sans-serif" font-weight="400" font-size="13" transform="translate(1221.83 312)">1<tspan fill="#000000" font-size="19" x="-504.352" y="39">sequence[0]</tspan><tspan fill="#000000" font-size="19" x="-508.352" y="70">VCO = 1GHz</tspan><tspan fill="#000000" font-size="19" x="-516.352" y="100">LF BW 300kHz</tspan></text><rect x="110.5" y="353.5" width="82" height="40" stroke="#000000" stroke-linejoin="round" stroke-miterlimit="10" fill="none"/><text font-family="Arial,Arial_MSFontService,sans-serif" font-weight="400" font-size="13" transform="translate(124.26 370)">Calibrate <tspan font-size="13" x="12.1667" y="16">VCO</tspan></text><path d="M144 321.5 148.5 317 153 321.5 150.75 321.5 150.75 353 146.25 353 146.25 321.5Z" fill="#4FABE3" fill-rule="evenodd"/><rect x="260.5" y="127.5" width="158" height="140" stroke="#000000" stroke-linejoin="round" stroke-miterlimit="10" fill="none"/><text font-family="Arial,Arial_MSFontService,sans-serif" font-weight="400" font-size="12" transform="translate(278.652 144)">Calibrate LF BW for all    <tspan font-size="12" x="15" y="14">x chirp sequence </tspan><tspan font-size="12" x="1" y="28">consisting of k</tspan><tspan font-size="12" x="77" y="28">-</tspan>profiles <tspan font-size="12" x="46" y="43">using</tspan><tspan font-family="Cambria Math,Cambria Math_MSFontService,sans-serif" font-size="13" x="-3.91998" y="72">CFavg</tspan><tspan font-family="Cambria Math,Cambria Math_MSFontService,sans-serif" font-size="13" x="30.58" y="72">[</tspan><tspan font-family="Cambria Math,Cambria Math_MSFontService,sans-serif" font-size="13" x="35.2467" y="72">x</tspan><tspan font-family="Cambria Math,Cambria Math_MSFontService,sans-serif" font-size="13" x="41.7467" y="72">]</tspan><tspan font-family="Cambria Math,Cambria Math_MSFontService,sans-serif" font-size="13" x="48.2667" y="72"> </tspan><tspan font-family="Cambria Math,Cambria Math_MSFontService,sans-serif" font-size="13" x="53.12" y="72">=</tspan></text><path d="M2.96436-15.2915 10.5371-5.0083 10.5371-4.24023 2.36133 6.85547 13.3745 6.85547C13.8612 6.85547 14.2336 6.68408 14.4917 6.34131 14.7498 5.99854 14.972 5.23258 15.1582 4.04346L16.0977 4.04346 15.7739 8.69629 0.165039 8.69629 0.165039 8.06787 9.05811-3.98633 0.425293-15.52 0.425293-16.123 15.7549-16.123 15.7549-12.3652 14.917-12.3652C14.8197-13.2666 14.6229-13.9797 14.3267-14.5044 14.0304-15.0291 13.5819-15.2915 12.981-15.2915Z" transform="translate(346.032 216)"/><text font-family="Cambria Math,Cambria Math_MSFontService,sans-serif" font-weight="400" font-size="13" transform="translate(366.485 216)">ğ¶ğ¹<tspan font-size="13" x="16.6867" y="0">[</tspan><tspan font-size="13" x="21.3533" y="0">ğ‘˜</tspan><tspan font-size="13" x="29.08" y="0">]</tspan><tspan font-size="13" x="33.7467" y="0"> </tspan><tspan font-size="9" x="-14.8667" y="-20">ğ‘›</tspan><tspan font-size="9" x="-21.0067" y="17">ğ‘˜</tspan><tspan font-size="9" x="-14.8867" y="17">=</tspan><tspan font-size="9" x="-7.88666" y="17">0</tspan><tspan font-family="Arial,Arial_MSFontService,sans-serif" font-size="13" x="-96" y="38">LUT[x] per sequence[x]</tspan></text><path d="M335 308.5 337.25 308.5 337.25 269 341.75 269 341.75 308.5 344 308.5 339.5 313Z" fill="#4FABE3" fill-rule="evenodd"/><rect x="511.5" y="358.5" width="133" height="68" stroke="#000000" stroke-linejoin="round" stroke-miterlimit="10" fill="none"/><text font-family="Arial,Arial_MSFontService,sans-serif" font-weight="400" font-size="13" transform="translate(540.846 376)">Program the <tspan font-size="13" x="-14" y="16">calibrated LUT[0] </tspan><tspan font-size="13" x="-9.08002" y="32">for sequence[0]</tspan></text><path d="M568 321.5 572.5 317 577 321.5 574.75 321.5 574.75 358 570.25 358 570.25 321.5Z" fill="#4FABE3" fill-rule="evenodd"/><path d="M103.377 424.398 199.544 424.398 199.544 440.398 103.377 440.398Z" fill="#FFFF00" fill-rule="evenodd"/><path d="M113.21 450.398 189.71 450.398 189.71 466.398 113.21 466.398Z" fill="#FFFF00" fill-rule="evenodd"/><text font-family="Arial,Arial_MSFontService,sans-serif" font-weight="700" font-size="15" transform="translate(103.377 437)">Configuration<tspan font-size="15" x="9.83334" y="26">Calibration</tspan><tspan font-weight="400" font-size="19" x="981.84" y="-77">sequence[1]</tspan><tspan font-weight="400" font-size="19" x="977.84" y="-46">VCO = 1GHz</tspan><tspan font-weight="400" font-size="19" x="969.84" y="-16">LF BW 300kHz</tspan></text><path d="M702 316 725 248 748 316Z" fill="#4FABE3" fill-rule="evenodd"/><text fill="#FFFFFF" font-family="Arial,Arial_MSFontService,sans-serif" font-weight="400" font-size="13" transform="translate(724.572 312)">0</text><path d="M789 316 812 248 835 316Z" fill="#4FABE3" fill-rule="evenodd"/><text fill="#FFFFFF" font-family="Arial,Arial_MSFontService,sans-serif" font-weight="400" font-size="13" transform="translate(811.687 312)">0</text><path d="M1072 316 1095 248 1118 316Z" fill="#FFC000" fill-rule="evenodd"/><text fill="#FFFFFF" font-family="Arial,Arial_MSFontService,sans-serif" font-weight="400" font-size="13" transform="translate(1094.71 312)">1</text><path d="M1157 316 1180 248 1203 316Z" fill="#FFC000" fill-rule="evenodd"/><text fill="#FFFFFF" font-family="Arial,Arial_MSFontService,sans-serif" font-weight="400" font-size="13" transform="translate(1180 312)">1</text><path d="M461.5 536.509C461.5 547.552 460.008 556.505 458.168 556.505L258.832 556.505C256.992 556.505 255.5 565.457 255.5 576.5 255.5 565.457 254.008 556.505 252.168 556.505L52.8325 556.505C50.992 556.505 49.5001 547.552 49.5001 536.509" stroke="#49A8E2" stroke-linejoin="round" stroke-miterlimit="10" fill="none" fill-rule="evenodd"/><text font-family="Arial,Arial_MSFontService,sans-serif" font-weight="400" font-size="23" transform="translate(167.833 619)">RFE Configuration</text><path d="M546.769 258.042 593.269 258.042 593.269 274.042 546.769 274.042Z" fill="#FFFF00" fill-rule="evenodd"/><path d="M521.436 284.042 618.602 284.042 618.602 300.042 521.436 300.042Z" fill="#FFFF00" fill-rule="evenodd"/><text font-family="Arial,Arial_MSFontService,sans-serif" font-weight="700" font-size="15" transform="translate(546.769 271)">LF BW<tspan font-size="15" x="-25.3334" y="26">REPROGRAM</tspan><tspan font-weight="400" font-size="23" x="553.483" y="-28">CF1</tspan></text><path d="M315.735 342.596 362.235 342.596 362.235 358.596 315.735 358.596Z" fill="#FFFF00" fill-rule="evenodd"/><path d="M290.902 368.596 387.069 368.596 387.069 384.596 290.902 384.596Z" fill="#FFFF00" fill-rule="evenodd"/><path d="M300.735 393.596 377.235 393.596 377.235 409.596 300.735 409.596Z" fill="#FFFF00" fill-rule="evenodd"/><text font-family="Arial,Arial_MSFontService,sans-serif" font-weight="700" font-size="15" transform="translate(315.735 356)">LF BW<tspan font-size="15" x="-24.8333" y="26">Configuration</tspan><tspan font-size="15" x="-15" y="51">Calibration</tspan></text><path d="M1245.5 536.5C1245.5 547.546 1244.01 556.501 1242.17 556.501L875.333 556.5C873.492 556.5 872 565.454 872 576.5 872 565.454 870.508 556.5 868.667 556.5L501.833 556.5C499.992 556.5 498.5 547.545 498.5 536.499" stroke="#49A8E2" stroke-linejoin="round" stroke-miterlimit="10" fill="none" fill-rule="evenodd"/><text font-family="Arial,Arial_MSFontService,sans-serif" font-weight="400" font-size="23" transform="translate(809.176 619)">Radar Cycle<tspan font-size="19" x="-97.3439" y="-505">Run</tspan><tspan font-size="19" x="-63.1773" y="-505">-</tspan><tspan font-size="19" x="-57.0106" y="-505">time update</tspan><tspan font-size="19" x="-122.424" y="-474">CF0[0] = </tspan><tspan font-size="19" x="-45.424" y="-474">76.30 GHz </tspan><tspan font-size="19" x="48.7427" y="-474">or</tspan><tspan font-size="19" x="-122.424" y="-444">CF0[1] = </tspan><tspan font-size="19" x="-45.424" y="-444">76.50 GHz </tspan><tspan font-size="19" x="48.7427" y="-444">or</tspan><tspan font-size="19" x="-111.591" y="-414">CF0[2] = </tspan><tspan font-size="19" x="-34.5906" y="-414">76.70 GHz</tspan><tspan font-size="13" x="-163.511" y="-388">Set CF = AVG(CF0[x]) in RFE Config profile 0</tspan></text></g></svg>