<svg width="1280" height="720" xmlns="http://www.w3.org/2000/svg" xmlns:xlink="http://www.w3.org/1999/xlink" overflow="hidden"><defs><clipPath id="clip0"><rect x="0" y="0" width="1280" height="720"/></clipPath></defs><g clip-path="url(#clip0)"><rect x="0" y="0" width="1280" height="720" fill="#FFFFFF"/><rect x="852" y="244" width="154" height="205" fill="#DCEE99"/><rect x="864.5" y="354.5" width="133" height="68" stroke="#000000" stroke-linejoin="round" stroke-miterlimit="10" fill="none"/><text font-family="Arial,Arial_MSFontService,sans-serif" font-weight="400" font-size="13" transform="translate(894.161 371)">Program the <tspan font-size="13" x="-14" y="16">calibrated LUT[</tspan><tspan font-size="13" x="76" y="16">1] </tspan><tspan font-size="13" x="-9.08002" y="32">for </tspan><tspan font-size="13" x="10.0867" y="32">sequence[1]</tspan></text><path d="M921 317.5 925.5 313 930 317.5 927.75 317.5 927.75 354 923.25 354 923.25 317.5Z" fill="#4FABE3" fill-rule="evenodd"/><path d="M900.083 253.839 946.583 253.839 946.583 269.839 900.083 269.839Z" fill="#FFFF00" fill-rule="evenodd"/><path d="M874.75 279.839 971.917 279.839 971.917 295.839 874.75 295.839Z" fill="#FFFF00" fill-rule="evenodd"/><text font-family="Arial,Arial_MSFontService,sans-serif" font-weight="700" font-size="15" transform="translate(900.083 267)">LF BW<tspan font-size="15" x="-25.3333" y="26">REPROGRAM</tspan></text><rect x="475" y="243" width="154" height="205" fill="#DCEE99"/><rect x="231" y="111" width="170" height="302" fill="#DCEE99"/><rect x="65" y="259" width="125" height="205" fill="#FFEBCE"/><path d="M5.50005 310 1233.21 310 1233.21 311 5.50005 311ZM1231.87 306.5 1239.87 310.5 1231.87 314.5Z" fill="#49A8E2"/><text font-family="Arial,Arial_MSFontService,sans-serif" font-weight="400" font-size="19" transform="translate(693.966 346)">sequence[0]<tspan font-size="19" x="-4" y="31">VCO = 1GHz</tspan><tspan font-size="19" x="-12" y="61">LF BW 300kHz</tspan><tspan font-size="19" x="-41.9133" y="91">Same for all profiles of </tspan><tspan font-size="19" x="0" y="114">sequence[0]</tspan></text><rect x="86.5001" y="348.5" width="82" height="40" stroke="#000000" stroke-linejoin="round" stroke-miterlimit="10" fill="none"/><text font-family="Arial,Arial_MSFontService,sans-serif" font-weight="400" font-size="13" transform="translate(100.749 366)">Calibrate <tspan font-size="13" x="12.1667" y="16">VCO</tspan></text><path d="M121 316.5 125.5 312 130 316.5 127.75 316.5 127.75 348 123.25 348 123.25 316.5Z" fill="#4FABE3" fill-rule="evenodd"/><rect x="236.5" y="122.5" width="159" height="140" stroke="#000000" stroke-linejoin="round" stroke-miterlimit="10" fill="none"/><text font-family="Arial,Arial_MSFontService,sans-serif" font-weight="400" font-size="12" transform="translate(255.142 139)">Calibrate LF BW for all    <tspan font-size="12" x="15" y="14">x chirp sequence </tspan><tspan font-size="12" x="2.66667" y="28">consisting o k</tspan><tspan font-size="12" x="75.3333" y="28">-</tspan>profiles <tspan font-size="12" x="46" y="43">using</tspan><tspan font-family="Cambria Math,Cambria Math_MSFontService,sans-serif" font-size="13" x="-3.92" y="72">CFavg</tspan><tspan font-family="Cambria Math,Cambria Math_MSFontService,sans-serif" font-size="13" x="30.58" y="72">[</tspan><tspan font-family="Cambria Math,Cambria Math_MSFontService,sans-serif" font-size="13" x="35.2467" y="72">x</tspan><tspan font-family="Cambria Math,Cambria Math_MSFontService,sans-serif" font-size="13" x="41.7467" y="72">]</tspan><tspan font-family="Cambria Math,Cambria Math_MSFontService,sans-serif" font-size="13" x="48.2667" y="72"> </tspan><tspan font-family="Cambria Math,Cambria Math_MSFontService,sans-serif" font-size="13" x="53.12" y="72">=</tspan></text><path d="M2.96436-15.2915 10.5371-5.0083 10.5371-4.24023 2.36133 6.85547 13.3745 6.85547C13.8612 6.85547 14.2336 6.68408 14.4917 6.34131 14.7498 5.99854 14.972 5.23258 15.1582 4.04346L16.0977 4.04346 15.7739 8.69629 0.165039 8.69629 0.165039 8.06787 9.05811-3.98633 0.425293-15.52 0.425293-16.123 15.7549-16.123 15.7549-12.3652 14.917-12.3652C14.8197-13.2666 14.6229-13.9797 14.3267-14.5044 14.0304-15.0291 13.5819-15.2915 12.981-15.2915Z" transform="translate(322.522 211)"/><text font-family="Cambria Math,Cambria Math_MSFontService,sans-serif" font-weight="400" font-size="13" transform="translate(342.975 211)">ğ¶ğ¹<tspan font-size="13" x="16.6867" y="0">[</tspan><tspan font-size="13" x="21.3534" y="0">ğ‘˜</tspan><tspan font-size="13" x="29.08" y="0">]</tspan><tspan font-size="13" x="33.7467" y="0"> </tspan><tspan font-size="9" x="-14.8666" y="-20">ğ‘›</tspan><tspan font-size="9" x="-21.0067" y="17">ğ‘˜</tspan><tspan font-size="9" x="-14.8867" y="17">=</tspan><tspan font-size="9" x="-7.88666" y="17">0</tspan><tspan font-family="Arial,Arial_MSFontService,sans-serif" font-size="13" x="-96" y="38">LUT[x] per sequence[x]</tspan></text><path d="M311 304 313.5 304 313.5 264 318.5 264 318.5 304 321 304 316 309Z" fill="#4FABE3" fill-rule="evenodd"/><rect x="487.5" y="353.5" width="133" height="68" stroke="#000000" stroke-linejoin="round" stroke-miterlimit="10" fill="none"/><text font-family="Arial,Arial_MSFontService,sans-serif" font-weight="400" font-size="13" transform="translate(517.336 371)">Program the <tspan font-size="13" x="-14" y="16">calibrated LUT[0] </tspan><tspan font-size="13" x="-9.08002" y="32">for sequence[0]</tspan></text><path d="M544 316.5 548.5 312 553 316.5 550.75 316.5 550.75 353 546.25 353 546.25 316.5Z" fill="#4FABE3" fill-rule="evenodd"/><path d="M79.8668 419.5 176.033 419.5 176.033 435.5 79.8668 435.5Z" fill="#FFFF00" fill-rule="evenodd"/><path d="M89.7001 445.5 166.2 445.5 166.2 461.5 89.7001 461.5Z" fill="#FFFF00" fill-rule="evenodd"/><text font-family="Arial,Arial_MSFontService,sans-serif" font-weight="700" font-size="15" transform="translate(79.8668 433)">Configuration<tspan font-size="15" x="9.83333" y="26">Calibration</tspan><tspan font-weight="400" font-size="19" x="981.837" y="-77">sequence[1] </tspan><tspan font-weight="400" font-size="19" x="977.837" y="-46">VCO = 1GHz</tspan><tspan font-weight="400" font-size="19" x="969.837" y="-16">LF BW 300kHz</tspan><tspan font-weight="400" font-size="19" x="939.924" y="14">Same for all profiles of </tspan><tspan font-weight="400" font-size="19" x="981.837" y="37">sequence[0]</tspan></text><path d="M438.5 532.5C438.5 543.27 437.045 552 435.25 552L235.25 552C233.455 552 232 560.73 232 571.5 232 560.73 230.545 552 228.75 552L28.7498 552C26.955 552 25.5001 543.269 25.5001 532.5" stroke="#49A8E2" stroke-linejoin="round" stroke-miterlimit="10" fill="none" fill-rule="evenodd"/><text font-family="Arial,Arial_MSFontService,sans-serif" font-weight="400" font-size="23" transform="translate(144.322 614)">RFE Configuration</text><path d="M523.259 253.144 569.759 253.144 569.759 269.144 523.259 269.144Z" fill="#FFFF00" fill-rule="evenodd"/><path d="M497.925 279.144 595.092 279.144 595.092 295.144 497.925 295.144Z" fill="#FFFF00" fill-rule="evenodd"/><text font-family="Arial,Arial_MSFontService,sans-serif" font-weight="700" font-size="15" transform="translate(523.259 266)">LF BW<tspan font-size="15" x="-25.3333" y="26">REPROGRAM</tspan></text><path d="M292.225 337.698 338.725 337.698 338.725 353.698 292.225 353.698Z" fill="#FFFF00" fill-rule="evenodd"/><path d="M267.392 363.698 363.558 363.698 363.558 379.698 267.392 379.698Z" fill="#FFFF00" fill-rule="evenodd"/><path d="M277.225 388.698 353.725 388.698 353.725 404.698 277.225 404.698Z" fill="#FFFF00" fill-rule="evenodd"/><text font-family="Arial,Arial_MSFontService,sans-serif" font-weight="700" font-size="15" transform="translate(292.225 351)">LF BW<tspan font-size="15" x="-24.8333" y="26">Configuration</tspan><tspan font-size="15" x="-15" y="51">Calibration</tspan></text><path d="M1221.5 532.5C1221.5 543.27 1220.05 552.001 1218.25 552.001L851.749 552C849.955 552 848.5 560.73 848.5 571.5 848.5 560.73 847.045 552 845.25 552L478.749 552C476.955 552 475.5 543.269 475.5 532.499" stroke="#49A8E2" stroke-linejoin="round" stroke-miterlimit="10" fill="none" fill-rule="evenodd"/><text font-family="Arial,Arial_MSFontService,sans-serif" font-weight="400" font-size="23" transform="translate(785.666 614)">Radar Cycle</text><path d="M631 311 654 242 677 311Z" fill="#4FABE3" fill-rule="evenodd"/><text fill="#FFFFFF" font-family="Arial,Arial_MSFontService,sans-serif" font-weight="400" font-size="13" transform="translate(654.185 306)">0</text><path d="M719 294 742 225 765 294Z" fill="#4FABE3" fill-rule="evenodd"/><text fill="#FFFFFF" font-family="Arial,Arial_MSFontService,sans-serif" font-weight="400" font-size="13" transform="translate(742.433 289)">0</text><path d="M804 276 827 207 850 276Z" fill="#4FABE3" fill-rule="evenodd"/><text fill="#FFFFFF" font-family="Arial,Arial_MSFontService,sans-serif" font-weight="400" font-size="13" transform="translate(827.094 272)">0</text><path d="M676 302 699 234 722 302Z" fill="#4FABE3" fill-rule="evenodd"/><text fill="#FFFFFF" font-family="Arial,Arial_MSFontService,sans-serif" font-weight="400" font-size="13" transform="translate(698.678 298)">0</text><path d="M762 284 785 216 808 284Z" fill="#4FABE3" fill-rule="evenodd"/><text fill="#FFFFFF" font-family="Arial,Arial_MSFontService,sans-serif" font-weight="400" font-size="13" transform="translate(784.724 280)">0</text><path d="M1013 311 1036 242 1059 311Z" fill="#FFC000" fill-rule="evenodd"/><text fill="#FFFFFF" font-family="Arial,Arial_MSFontService,sans-serif" font-weight="400" font-size="13" transform="translate(1035.73 306)">1</text><path d="M1098 311 1121 242 1144 311Z" fill="#FFC000" fill-rule="evenodd"/><text fill="#FFFFFF" font-family="Arial,Arial_MSFontService,sans-serif" font-weight="400" font-size="13" transform="translate(1121.18 306)">1</text><path d="M1184 311 1207 242 1230 311Z" fill="#FFC000" fill-rule="evenodd"/><text fill="#FFFFFF" font-family="Arial,Arial_MSFontService,sans-serif" font-weight="400" font-size="13" transform="translate(1206.62 306)">1</text><path d="M1057 335 1080 267 1103 335Z" fill="#FFC000" fill-rule="evenodd"/><text fill="#FFFFFF" font-family="Arial,Arial_MSFontService,sans-serif" font-weight="400" font-size="13" transform="translate(1079.62 331)">4</text><path d="M1144 334 1167 265 1190 334Z" fill="#FFC000" fill-rule="evenodd"/><text fill="#FFFFFF" font-family="Arial,Arial_MSFontService,sans-serif" font-weight="400" font-size="13" transform="translate(1167.13 330)">4<tspan fill="#000000" font-size="23" x="-86.4395" y="-182">CF1</tspan><tspan fill="#000000" font-size="23" x="-86.4395" y="-147">CF4</tspan></text><path d="M990.5 304.5 1265.36 304.5" stroke="#000000" stroke-linejoin="round" stroke-miterlimit="10" fill="none" fill-rule="evenodd"/><text font-family="Arial,Arial_MSFontService,sans-serif" font-weight="400" font-size="19" transform="translate(688.322 84)">Run<tspan font-size="19" x="34.1667" y="0">-</tspan><tspan font-size="19" x="40.3333" y="0">time update</tspan><tspan font-size="19" x="-25.08" y="31">CF0[0] = </tspan><tspan font-size="19" x="51.92" y="31">76.30 GHz </tspan><tspan font-size="19" x="146.087" y="31">or</tspan><tspan font-size="19" x="-25.08" y="61">CF0[1] = </tspan><tspan font-size="19" x="51.92" y="61">76.50 GHz </tspan><tspan font-size="19" x="146.087" y="61">or</tspan><tspan font-size="19" x="-14.2467" y="91">CF0[2] </tspan><tspan font-size="19" x="46.7534" y="91">= </tspan>76.70 GHz<tspan font-size="13" x="-81.1667" y="117">Set CF = AVG(CF0[x]+drift) in RFE Config profile 0</tspan></text></g></svg>