<svg width="1280" height="720" xmlns="http://www.w3.org/2000/svg" xmlns:xlink="http://www.w3.org/1999/xlink" overflow="hidden"><defs><clipPath id="clip0"><rect x="0" y="0" width="1280" height="720"/></clipPath></defs><g clip-path="url(#clip0)"><rect x="0" y="0" width="1280" height="720" fill="#FFFFFF"/><rect x="861" y="261" width="154" height="205" fill="#DCEE99"/><rect x="873.5" y="371.5" width="133" height="68" stroke="#000000" stroke-linejoin="round" stroke-miterlimit="10" fill="none"/><text font-family="Arial,Arial_MSFontService,sans-serif" font-weight="400" font-size="13" transform="translate(903.166 389)">Program the <tspan font-size="13" x="-14" y="16">calibrated LUT[1] </tspan><tspan font-size="13" x="-9.07996" y="32">for sequence[1]</tspan></text><path d="M930 334.5 934.5 330 939 334.5 936.75 334.5 936.75 371 932.25 371 932.25 334.5Z" fill="#4FABE3" fill-rule="evenodd"/><path d="M909.088 271.121 955.588 271.121 955.588 287.121 909.088 287.121Z" fill="#FFFF00" fill-rule="evenodd"/><path d="M883.755 297.121 980.922 297.121 980.922 313.121 883.755 313.121Z" fill="#FFFF00" fill-rule="evenodd"/><text font-family="Arial,Arial_MSFontService,sans-serif" font-weight="700" font-size="15" transform="translate(909.088 284)">LF BW<tspan font-size="15" x="-25.3334" y="26">REPROGRAM</tspan></text><rect x="484" y="260" width="154" height="205" fill="#DCEE99"/><rect x="240" y="128" width="170" height="302" fill="#DCEE99"/><rect x="74" y="276" width="125" height="205" fill="#FFEBCE"/><path d="M14.5001 327 1242.21 327 1242.21 328 14.5001 328ZM1240.87 323.5 1248.87 327.5 1240.87 331.5Z" fill="#49A8E2"/><text font-family="Arial,Arial_MSFontService,sans-serif" font-weight="400" font-size="19" transform="translate(702.971 364)">sequence[0]<tspan font-size="19" x="-4" y="31">VCO = 1GHz</tspan><tspan font-size="19" x="-12" y="61">LF BW 300kHz</tspan><tspan font-size="19" x="-41.9133" y="91">Same for all profiles of </tspan><tspan font-size="19" x="0" y="114">sequence[0]</tspan></text><rect x="95.5001" y="365.5" width="82" height="41" stroke="#000000" stroke-linejoin="round" stroke-miterlimit="10" fill="none"/><text font-family="Arial,Arial_MSFontService,sans-serif" font-weight="400" font-size="13" transform="translate(109.754 383)">Calibrate <tspan font-size="13" x="12.1667" y="16">VCO</tspan></text><path d="M130 333.5 134.5 329 139 333.5 136.75 333.5 136.75 365 132.25 365 132.25 333.5Z" fill="#4FABE3" fill-rule="evenodd"/><rect x="245.5" y="140.5" width="159" height="139" stroke="#000000" stroke-linejoin="round" stroke-miterlimit="10" fill="none"/><text font-family="Arial,Arial_MSFontService,sans-serif" font-weight="400" font-size="12" transform="translate(264.147 156)">Calibrate LF BW for all    <tspan font-size="12" x="15" y="14">x chirp sequence </tspan><tspan font-size="12" x="1" y="28">consisting of k</tspan><tspan font-size="12" x="77" y="28">-</tspan>profiles <tspan font-size="12" x="46" y="43">using</tspan><tspan font-family="Cambria Math,Cambria Math_MSFontService,sans-serif" font-size="13" x="-3.92001" y="72">CFavg</tspan><tspan font-family="Cambria Math,Cambria Math_MSFontService,sans-serif" font-size="13" x="30.58" y="72">[</tspan><tspan font-family="Cambria Math,Cambria Math_MSFontService,sans-serif" font-size="13" x="35.2467" y="72">x</tspan><tspan font-family="Cambria Math,Cambria Math_MSFontService,sans-serif" font-size="13" x="41.7467" y="72">]</tspan><tspan font-family="Cambria Math,Cambria Math_MSFontService,sans-serif" font-size="13" x="48.2667" y="72"> </tspan><tspan font-family="Cambria Math,Cambria Math_MSFontService,sans-serif" font-size="13" x="53.12" y="72">=</tspan></text><path d="M2.96436-15.2915 10.5371-5.0083 10.5371-4.24023 2.36133 6.85547 13.3745 6.85547C13.8612 6.85547 14.2336 6.68408 14.4917 6.34131 14.7498 5.99854 14.972 5.23258 15.1582 4.04346L16.0977 4.04346 15.7739 8.69629 0.165039 8.69629 0.165039 8.06787 9.05811-3.98633 0.425293-15.52 0.425293-16.123 15.7549-16.123 15.7549-12.3652 14.917-12.3652C14.8197-13.2666 14.6229-13.9797 14.3267-14.5044 14.0304-15.0291 13.5819-15.2915 12.981-15.2915Z" transform="translate(331.527 228)"/><text font-family="Cambria Math,Cambria Math_MSFontService,sans-serif" font-weight="400" font-size="13" transform="translate(351.98 228)">ğ¶ğ¹<tspan font-size="13" x="16.6866" y="0">[</tspan><tspan font-size="13" x="21.3533" y="0">ğ‘˜</tspan><tspan font-size="13" x="29.08" y="0">]</tspan><tspan font-size="13" x="33.7466" y="0"> </tspan><tspan font-size="9" x="-14.8667" y="-19">ğ‘›</tspan><tspan font-size="9" x="-21.0067" y="17">ğ‘˜</tspan><tspan font-size="9" x="-14.8867" y="17">=</tspan><tspan font-size="9" x="-7.88669" y="17">0</tspan><tspan font-family="Arial,Arial_MSFontService,sans-serif" font-size="13" x="-96" y="38">LUT[x] per sequence[x]</tspan></text><path d="M321 321.5 323.25 321.5 323.25 281 327.75 281 327.75 321.5 330 321.5 325.5 326Z" fill="#4FABE3" fill-rule="evenodd"/><rect x="496.5" y="370.5" width="133" height="69" stroke="#000000" stroke-linejoin="round" stroke-miterlimit="10" fill="none"/><text font-family="Arial,Arial_MSFontService,sans-serif" font-weight="400" font-size="13" transform="translate(526.341 388)">Program the <tspan font-size="13" x="-14" y="16">calibrated LUT[0] </tspan><tspan font-size="13" x="-9.07996" y="32">for sequence[0]</tspan></text><path d="M553 333.5 557.5 329 562 333.5 559.75 333.5 559.75 370 555.25 370 555.25 333.5Z" fill="#4FABE3" fill-rule="evenodd"/><path d="M88.8718 436.783 185.038 436.783 185.038 452.783 88.8718 452.783Z" fill="#FFFF00" fill-rule="evenodd"/><path d="M98.7051 462.783 175.205 462.783 175.205 478.783 98.7051 478.783Z" fill="#FFFF00" fill-rule="evenodd"/><text font-family="Arial,Arial_MSFontService,sans-serif" font-weight="700" font-size="15" transform="translate(88.8718 450)">Configuration<tspan font-size="15" x="9.83334" y="26">Calibration</tspan><tspan font-weight="400" font-size="19" x="981.837" y="-77">sequence[1] </tspan><tspan font-weight="400" font-size="19" x="977.837" y="-46">VCO = 1GHz</tspan><tspan font-weight="400" font-size="19" x="969.837" y="-16">LF BW 300kHz</tspan><tspan font-weight="400" font-size="19" x="939.923" y="14">Same for all profiles of </tspan><tspan font-weight="400" font-size="19" x="981.837" y="37">sequence[0]</tspan></text><path d="M447.5 549.5C447.5 560.27 446.045 569 444.25 569L244.25 569C242.455 569 241 577.73 241 588.5 241 577.73 239.545 569 237.75 569L37.7498 569C35.955 569 34.5001 560.269 34.5001 549.5" stroke="#49A8E2" stroke-linejoin="round" stroke-miterlimit="10" fill="none" fill-rule="evenodd"/><text font-family="Arial,Arial_MSFontService,sans-serif" font-weight="400" font-size="23" transform="translate(153.327 631)">RFE Configuration</text><path d="M532.264 270.427 578.764 270.427 578.764 286.427 532.264 286.427Z" fill="#FFFF00" fill-rule="evenodd"/><path d="M506.931 296.427 604.097 296.427 604.097 312.427 506.931 312.427Z" fill="#FFFF00" fill-rule="evenodd"/><text font-family="Arial,Arial_MSFontService,sans-serif" font-weight="700" font-size="15" transform="translate(532.264 283)">LF BW<tspan font-size="15" x="-25.3333" y="26">REPROGRAM</tspan></text><path d="M301.23 354.981 347.73 354.981 347.73 370.981 301.23 370.981Z" fill="#FFFF00" fill-rule="evenodd"/><path d="M276.397 380.981 372.564 380.981 372.564 396.981 276.397 396.981Z" fill="#FFFF00" fill-rule="evenodd"/><path d="M286.23 405.981 362.73 405.981 362.73 421.981 286.23 421.981Z" fill="#FFFF00" fill-rule="evenodd"/><text font-family="Arial,Arial_MSFontService,sans-serif" font-weight="700" font-size="15" transform="translate(301.23 368)">LF BW<tspan font-size="15" x="-24.8333" y="26">Configuration</tspan><tspan font-size="15" x="-15" y="51">Calibration</tspan></text><path d="M1230.5 549.5C1230.5 560.27 1229.05 569.001 1227.25 569.001L860.749 569C858.955 569 857.5 577.73 857.5 588.5 857.5 577.73 856.045 569 854.25 569L487.749 569C485.955 569 484.5 560.269 484.5 549.499" stroke="#49A8E2" stroke-linejoin="round" stroke-miterlimit="10" fill="none" fill-rule="evenodd"/><text font-family="Arial,Arial_MSFontService,sans-serif" font-weight="400" font-size="23" transform="translate(794.671 631)">Radar Cycle</text><path d="M640 328 663 259 686 328Z" fill="#4FABE3" fill-rule="evenodd"/><text fill="#FFFFFF" font-family="Arial,Arial_MSFontService,sans-serif" font-weight="400" font-size="13" transform="translate(663.19 324)">0</text><path d="M726 328 749 259 772 328Z" fill="#4FABE3" fill-rule="evenodd"/><text fill="#FFFFFF" font-family="Arial,Arial_MSFontService,sans-serif" font-weight="400" font-size="13" transform="translate(748.637 324)">0</text><path d="M811 328 834 259 857 328Z" fill="#4FABE3" fill-rule="evenodd"/><text fill="#FFFFFF" font-family="Arial,Arial_MSFontService,sans-serif" font-weight="400" font-size="13" transform="translate(834.084 324)">0</text><path d="M684 291 707 223 730 291Z" fill="#4FABE3" fill-rule="evenodd"/><text fill="#FFFFFF" font-family="Arial,Arial_MSFontService,sans-serif" font-weight="400" font-size="13" transform="translate(706.808 287)">3</text><path d="M770 288 793 220 816 288Z" fill="#4FABE3" fill-rule="evenodd"/><text fill="#FFFFFF" font-family="Arial,Arial_MSFontService,sans-serif" font-weight="400" font-size="13" transform="translate(793.13 284)">3</text><path d="M630.5 299.5 905.363 299.5" stroke="#000000" stroke-linejoin="round" stroke-miterlimit="10" fill="none" fill-rule="evenodd"/><path d="M1022 328 1045 259 1068 328Z" fill="#FFC000" fill-rule="evenodd"/><text fill="#FFFFFF" font-family="Arial,Arial_MSFontService,sans-serif" font-weight="400" font-size="13" transform="translate(1044.73 324)">1</text><path d="M1107 328 1130 259 1153 328Z" fill="#FFC000" fill-rule="evenodd"/><text fill="#FFFFFF" font-family="Arial,Arial_MSFontService,sans-serif" font-weight="400" font-size="13" transform="translate(1130.18 324)">1</text><path d="M1193 328 1216 259 1239 328Z" fill="#FFC000" fill-rule="evenodd"/><text fill="#FFFFFF" font-family="Arial,Arial_MSFontService,sans-serif" font-weight="400" font-size="13" transform="translate(1215.63 324)">1</text><path d="M1066 353 1089 284 1112 353Z" fill="#FFC000" fill-rule="evenodd"/><text fill="#FFFFFF" font-family="Arial,Arial_MSFontService,sans-serif" font-weight="400" font-size="13" transform="translate(1088.63 349)">4</text><path d="M1153 351 1176 283 1199 351Z" fill="#FFC000" fill-rule="evenodd"/><text fill="#FFFFFF" font-family="Arial,Arial_MSFontService,sans-serif" font-weight="400" font-size="13" transform="translate(1176.14 347)">4<tspan fill="#000000" font-size="23" x="-86.4393" y="-182">CF1</tspan><tspan fill="#000000" font-size="23" x="-86.4393" y="-147">CF4</tspan><tspan fill="#000000" font-size="19" x="-484.718" y="-269">Run</tspan><tspan fill="#000000" font-size="19" x="-450.551" y="-269">-</tspan><tspan fill="#000000" font-size="19" x="-444.385" y="-269">time update</tspan><tspan fill="#000000" font-size="19" x="-501.798" y="-238">of CF0[x] and CF3[x]</tspan><tspan fill="#000000" font-size="13" x="-554.551" y="-213">Set CF0 = AVG(CF0[x]) in RFE Config profile 0</tspan><tspan fill="#000000" font-size="13" x="-554.551" y="-189">Set CF3 = AVG(CF3[x]) in RFE Config profile 3</tspan><tspan fill="#000000" font-size="19" x="-433.551" y="-160">CF0</tspan><tspan fill="#000000" font-size="19" x="-433.551" y="-130">CF3</tspan></text></g></svg>