<svg width="865" height="385" xmlns="http://www.w3.org/2000/svg" xmlns:xlink="http://www.w3.org/1999/xlink" overflow="hidden"><defs><clipPath id="clip0"><rect x="136" y="138" width="865" height="385"/></clipPath></defs><g clip-path="url(#clip0)" transform="translate(-136 -138)"><path d="M202.5 201.5 941.376 201.5" stroke="#001A46" stroke-linejoin="round" stroke-miterlimit="10" fill="none" fill-rule="evenodd"/><rect x="214" y="181" width="108" height="41" fill="#A3A3A3"/><text fill="#FFFFFF" font-family="Arial,Arial_MSFontService,sans-serif" font-weight="400" font-size="13" transform="translate(225.449 206)">Re-Calibration</text><rect x="329" y="181" width="151" height="41" fill="#4FABE3"/><text fill="#FFFFFF" font-family="Arial,Arial_MSFontService,sans-serif" font-weight="400" font-size="13" transform="translate(357.011 206)">Chirp Sequence</text><rect x="487" y="181" width="96" height="41" fill="#A3A3A3"/><text fill="#FFFFFF" font-family="Arial,Arial_MSFontService,sans-serif" font-weight="400" font-size="13" transform="translate(520.151 206)">BIST</text><path d="M214.5 179.5C214.5 174.513 215.174 170.47 216.005 170.47L571.495 170.47C572.326 170.47 573 166.427 573 161.44 573 166.427 573.674 170.47 574.505 170.47L929.995 170.47C930.826 170.47 931.5 174.513 931.5 179.5" stroke="#001A46" stroke-linejoin="round" stroke-miterlimit="10" fill="none" fill-rule="evenodd"/><text font-family="Arial,Arial_MSFontService,sans-serif" font-weight="400" font-size="12" transform="translate(541.13 156)">Radar Cycle</text><rect x="590" y="181" width="341" height="41" fill="#A3A3A3"/><text fill="#FFFFFF" font-family="Arial,Arial_MSFontService,sans-serif" font-weight="400" font-size="13" transform="translate(608.89 206)">RFE idle / reconfiguration</text><path d="M202.5 339.5 941.376 339.5" stroke="#001A46" stroke-linejoin="round" stroke-miterlimit="10" fill="none" fill-rule="evenodd"/><rect x="211" y="318" width="105" height="41" fill="#A3A3A3"/><text fill="#FFFFFF" font-family="Arial,Arial_MSFontService,sans-serif" font-weight="400" font-size="13" transform="translate(220.842 344)">Re-Calibration</text><rect x="322" y="318" width="116" height="41" fill="#4FABE3"/><text fill="#FFFFFF" font-family="Arial,Arial_MSFontService,sans-serif" font-weight="400" font-size="13" transform="translate(364.212 336)">Chirp <tspan font-size="13" x="-19.3333" y="16">Sequence 0</tspan></text><rect x="570" y="319" width="95" height="40" fill="#A3A3A3"/><text fill="#FFFFFF" font-family="Arial,Arial_MSFontService,sans-serif" font-weight="400" font-size="13" transform="translate(602.504 344)">BIST</text><path d="M211.5 316.5C211.5 311.511 212.174 307.466 213.006 307.466L569.995 307.466C570.826 307.466 571.5 303.422 571.5 298.432 571.5 303.422 572.174 307.466 573.006 307.466L929.995 307.466C930.826 307.466 931.5 311.511 931.5 316.5" stroke="#001A46" stroke-linejoin="round" stroke-miterlimit="10" fill="none" fill-rule="evenodd"/><text font-family="Arial,Arial_MSFontService,sans-serif" font-weight="400" font-size="12" transform="translate(541.13 292)">Radar Cycle</text><rect x="672" y="318" width="259" height="41" fill="#A3A3A3"/><text fill="#FFFFFF" font-family="Arial,Arial_MSFontService,sans-serif" font-weight="400" font-size="13" transform="translate(691.169 344)">RFE idle / reconfiguration<tspan fill="#000000" font-weight="700" font-size="11" x="-210.152" y="-104">A radar cycle with single chirp sequence</tspan><tspan fill="#000000" font-weight="700" font-size="11" x="-230.195" y="31">A radar cycle with multiple chirp sequences</tspan></text><rect x="446" y="318" width="116" height="40" fill="#1A48AA"/><text fill="#FFFFFF" font-family="Arial,Arial_MSFontService,sans-serif" font-weight="400" font-size="13" transform="translate(488.307 335)">Chirp <tspan font-size="13" x="-19.3333" y="16">Sequence 1</tspan></text><path d="M137.5 469.5 1000.61 469.5" stroke="#001A46" stroke-linejoin="round" stroke-miterlimit="10" fill="none" fill-rule="evenodd"/><rect x="143" y="448" width="108" height="41" fill="#A3A3A3"/><text fill="#FFFFFF" font-family="Arial,Arial_MSFontService,sans-serif" font-weight="400" font-size="13" transform="translate(154.236 474)">Re-Calibration</text><rect x="257" y="448" width="117" height="41" fill="#4FABE3"/><text fill="#FFFFFF" font-family="Arial,Arial_MSFontService,sans-serif" font-weight="400" font-size="13" transform="translate(299.198 466)">Chirp <tspan font-size="13" x="-19.3333" y="16">Sequence 0</tspan></text><rect x="727" y="449" width="54" height="40" fill="#A3A3A3"/><text fill="#FFFFFF" font-family="Arial,Arial_MSFontService,sans-serif" font-weight="400" font-size="13" transform="translate(739.459 474)">BIST</text><path d="M143.5 447.5C143.5 442.251 144.209 437.995 145.084 437.995L566.916 437.995C567.791 437.995 568.5 433.739 568.5 428.49 568.5 433.739 569.209 437.995 570.084 437.995L991.916 437.995C992.791 437.995 993.5 442.251 993.5 447.5" stroke="#001A46" stroke-linejoin="round" stroke-miterlimit="10" fill="none" fill-rule="evenodd"/><text font-family="Arial,Arial_MSFontService,sans-serif" font-weight="400" font-size="12" transform="translate(541.13 423)">Radar Cycle</text><rect x="379" y="448" width="116" height="40" fill="#A3A3A3"/><text fill="#FFFFFF" font-family="Arial,Arial_MSFontService,sans-serif" font-weight="400" font-size="13" transform="translate(411.162 473)">RFE<tspan font-size="13" x="30.3333" y="0">Idle</tspan><tspan fill="#000000" font-weight="700" font-size="11" x="-13.3649" y="36">A radar cycle with multiple chirp sequences and multiple calibrations</tspan></text><rect x="608" y="448" width="116" height="40" fill="#1A48AA"/><text fill="#FFFFFF" font-family="Arial,Arial_MSFontService,sans-serif" font-weight="400" font-size="13" transform="translate(649.916 465)">Chirp <tspan font-size="13" x="-19.3333" y="16">Sequence 1</tspan></text><rect x="500" y="448" width="104" height="40" fill="#A3A3A3"/><text fill="#FFFFFF" font-family="Arial,Arial_MSFontService,sans-serif" font-weight="400" font-size="13" transform="translate(509.363 473)">Re<tspan font-size="13" x="17" y="0">-</tspan>Calibration</text><rect x="785" y="448" width="210" height="40" fill="#A3A3A3"/><text fill="#FFFFFF" font-family="Arial,Arial_MSFontService,sans-serif" font-weight="400" font-size="13" transform="translate(803.972 473)">RFE idle / reconfiguration</text></g></svg>