<svg width="480" height="722" xmlns="http://www.w3.org/2000/svg" xmlns:xlink="http://www.w3.org/1999/xlink" overflow="hidden"><defs><clipPath id="clip0"><rect x="403" y="-1" width="480" height="722"/></clipPath></defs><g clip-path="url(#clip0)" transform="translate(-403 1)"><rect x="509" y="2" width="359" height="428" fill="#FFFFFF"/><rect x="509.5" y="2.50005" width="359" height="428" stroke="#000000" stroke-width="0.833386" stroke-linecap="round" stroke-linejoin="round" stroke-miterlimit="10" fill="none"/><text font-family="Calibri,Calibri_MSFontService,sans-serif" font-weight="700" font-size="12" transform="translate(514.057 18)">Radar Controller<tspan font-weight="400" font-size="17" x="-100.333" y="112">RFE Abstract </tspan><tspan font-weight="400" font-size="17" x="-68.5001" y="132">API</tspan></text><rect x="526" y="145" width="325" height="275" fill="#B7DDE8"/><rect x="526.5" y="145.5" width="325" height="275" stroke="#000000" stroke-width="0.833386" stroke-linecap="round" stroke-linejoin="round" stroke-miterlimit="10" fill="none"/><text font-family="Calibri,Calibri_MSFontService,sans-serif" font-weight="400" font-size="12" transform="translate(531.057 161)">RFE Driver</text><rect x="617" y="371" width="143" height="36" fill="#00B050"/><rect x="617.5" y="371.5" width="143" height="36" stroke="#000000" stroke-width="0.833386" stroke-linecap="round" stroke-linejoin="round" stroke-miterlimit="10" fill="none"/><text fill="#FFFFFF" font-family="Calibri,Calibri_MSFontService,sans-serif" font-weight="400" font-size="15" transform="translate(627.89 385)">RFE Command Client<tspan fill="#000000" font-weight="700" font-size="15" x="16.8334" y="18">rfeCmdClient.c</tspan></text><rect x="526" y="26" width="325" height="97" fill="#B7DDE8"/><rect x="526.5" y="26.5001" width="325" height="97" stroke="#000000" stroke-width="0.833386" stroke-linecap="round" stroke-linejoin="round" stroke-miterlimit="10" fill="none"/><text font-family="Calibri,Calibri_MSFontService,sans-serif" font-weight="400" font-size="12" transform="translate(531.057 42)">Radar Application</text><rect x="617" y="311" width="143" height="36" fill="#00B050"/><rect x="617.5" y="311.5" width="143" height="36" stroke="#000000" stroke-width="0.833386" stroke-linecap="round" stroke-linejoin="round" stroke-miterlimit="10" fill="none"/><text fill="#FFFFFF" font-family="Calibri,Calibri_MSFontService,sans-serif" font-weight="400" font-size="15" transform="translate(631.557 325)">RFE Command Stub<tspan fill="#000000" font-weight="700" font-size="15" x="-0.499939" y="18">rfeCmdClientStub.c</tspan></text><path d="M499.399 134.5 511.979 134.5C512.484 134.5 512.877 134.938 512.877 135.5 512.877 136 512.484 136.5 511.979 136.5L499.399 136.5C498.949 136.5 498.5 136 498.5 135.5 498.5 134.938 498.949 134.5 499.399 134.5ZM520.965 134.5 533.545 134.5C534.05 134.5 534.443 134.938 534.443 135.5 534.443 136 534.05 136.5 533.545 136.5L520.965 136.5C520.515 136.5 520.066 136 520.066 135.5 520.066 134.938 520.515 134.5 520.965 134.5ZM542.531 134.5 555.111 134.5C555.616 134.5 556.01 134.938 556.01 135.5 556.01 136 555.616 136.5 555.111 136.5L542.531 136.5C542.081 136.5 541.632 136 541.632 135.5 541.632 134.938 542.081 134.5 542.531 134.5ZM564.097 134.5 576.677 134.5C577.182 134.5 577.576 134.938 577.576 135.5 577.576 136 577.182 136.5 576.677 136.5L564.097 136.5C563.647 136.5 563.198 136 563.198 135.5 563.198 134.938 563.647 134.5 564.097 134.5ZM585.663 134.5 598.243 134.5C598.748 134.5 599.142 134.938 599.142 135.5 599.142 136 598.748 136.5 598.243 136.5L585.663 136.5C585.214 136.5 584.764 136 584.764 135.5 584.764 134.938 585.214 134.5 585.663 134.5ZM607.229 134.5 619.809 134.5C620.314 134.5 620.708 134.938 620.708 135.5 620.708 136 620.314 136.5 619.809 136.5L607.229 136.5C606.78 136.5 606.33 136 606.33 135.5 606.33 134.938 606.78 134.5 607.229 134.5ZM628.795 134.5 641.375 134.5C641.88 134.5 642.274 134.938 642.274 135.5 642.274 136 641.88 136.5 641.375 136.5L628.795 136.5C628.346 136.5 627.896 136 627.896 135.5 627.896 134.938 628.346 134.5 628.795 134.5ZM650.361 134.5 662.941 134.5C663.447 134.5 663.84 134.938 663.84 135.5 663.84 136 663.447 136.5 662.941 136.5L650.361 136.5C649.912 136.5 649.462 136 649.462 135.5 649.462 134.938 649.912 134.5 650.361 134.5ZM671.927 134.5 684.507 134.5C685.013 134.5 685.406 134.938 685.406 135.5 685.406 136 685.013 136.5 684.507 136.5L671.927 136.5C671.478 136.5 671.028 136 671.028 135.5 671.028 134.938 671.478 134.5 671.927 134.5ZM693.493 134.5 706.073 134.5C706.579 134.5 706.972 134.938 706.972 135.5 706.972 136 706.579 136.5 706.073 136.5L693.493 136.5C693.044 136.5 692.594 136 692.594 135.5 692.594 134.938 693.044 134.5 693.493 134.5ZM715.059 134.5 727.639 134.5C728.145 134.5 728.538 134.938 728.538 135.5 728.538 136 728.145 136.5 727.639 136.5L715.059 136.5C714.61 136.5 714.16 136 714.16 135.5 714.16 134.938 714.61 134.5 715.059 134.5ZM736.625 134.5 749.205 134.5C749.711 134.5 750.104 134.938 750.104 135.5 750.104 136 749.711 136.5 749.205 136.5L736.625 136.5C736.176 136.5 735.726 136 735.726 135.5 735.726 134.938 736.176 134.5 736.625 134.5ZM758.191 134.5 770.771 134.5C771.277 134.5 771.67 134.938 771.67 135.5 771.67 136 771.277 136.5 770.771 136.5L758.191 136.5C757.742 136.5 757.292 136 757.292 135.5 757.292 134.938 757.742 134.5 758.191 134.5ZM779.757 134.5 792.337 134.5C792.843 134.5 793.236 134.938 793.236 135.5 793.236 136 792.843 136.5 792.337 136.5L779.757 136.5C779.308 136.5 778.859 136 778.859 135.5 778.859 134.938 779.308 134.5 779.757 134.5ZM801.323 134.5 813.903 134.5C814.409 134.5 814.802 134.938 814.802 135.5 814.802 136 814.409 136.5 813.903 136.5L801.323 136.5C800.874 136.5 800.425 136 800.425 135.5 800.425 134.938 800.874 134.5 801.323 134.5ZM822.889 134.5 835.469 134.5C835.975 134.5 836.368 134.938 836.368 135.5 836.368 136 835.975 136.5 835.469 136.5L822.889 136.5C822.44 136.5 821.991 136 821.991 135.5 821.991 134.938 822.44 134.5 822.889 134.5ZM844.455 134.5 857.035 134.5C857.541 134.5 857.934 134.938 857.934 135.5 857.934 136 857.541 136.5 857.035 136.5L844.455 136.5C844.006 136.5 843.557 136 843.557 135.5 843.557 134.938 844.006 134.5 844.455 134.5ZM866.021 134.5 878.601 134.5C879.107 134.5 879.5 134.938 879.5 135.5 879.5 136 879.107 136.5 878.601 136.5L866.021 136.5C865.572 136.5 865.123 136 865.123 135.5 865.123 134.938 865.572 134.5 866.021 134.5Z" stroke="#00B050" stroke-width="0" stroke-linejoin="round" stroke-miterlimit="10" fill="#00B050" fill-rule="evenodd"/><rect x="582" y="199" width="99" height="51" fill="#00B050"/><rect x="582.5" y="199.5" width="99" height="51" stroke="#000000" stroke-width="0.833386" stroke-linecap="round" stroke-linejoin="round" stroke-miterlimit="10" fill="none"/><text fill="#FFFFFF" font-family="Calibri,Calibri_MSFontService,sans-serif" font-weight="400" font-size="15" transform="translate(600.89 213)">RFE Config<tspan fill="#000000" font-weight="700" font-size="15" x="8.16675" y="17">rfeCfg.c</tspan><tspan fill="#000000" font-weight="700" font-size="15" x="-3.33331" y="34">rfeDynTbl.c</tspan></text><path d="M0 0 0.000104987 10" stroke="#000000" stroke-width="0.833386" stroke-linecap="round" stroke-linejoin="round" stroke-miterlimit="10" fill="none" fill-rule="evenodd" transform="matrix(1 0 0 -1 689.5 364.5)"/><path d="M692 363 688.574 371 685 363 692 363Z" fill-rule="evenodd"/><path d="M685 355 688.574 347 692 355 685 355Z" fill-rule="evenodd"/><path d="M727.5 243.5 727.5 304.5" stroke="#000000" stroke-width="0.833386" stroke-linecap="round" stroke-linejoin="round" stroke-miterlimit="10" fill="none" fill-rule="evenodd"/><path d="M731 303 727.085 311 723 303 731 303Z" fill-rule="evenodd"/><path d="M671.5 110.953 671.5 117.294C671.5 117.521 671.25 117.747 671 117.747 670.688 117.747 670.5 117.521 670.5 117.294L670.5 110.953C670.5 110.67 670.688 110.5 671 110.5 671.25 110.5 671.5 110.67 671.5 110.953ZM671.5 121.823 671.5 128.164C671.5 128.391 671.25 128.617 671 128.617 670.688 128.617 670.5 128.391 670.5 128.164L670.5 121.823C670.5 121.54 670.688 121.37 671 121.37 671.25 121.37 671.5 121.54 671.5 121.823ZM671.5 132.694 671.5 139.035C671.5 139.261 671.25 139.488 671 139.488 670.688 139.488 670.5 139.261 670.5 139.035L670.5 132.694C670.5 132.411 670.688 132.241 671 132.241 671.25 132.241 671.5 132.411 671.5 132.694ZM671.5 143.564 671.5 149.905C671.5 150.132 671.25 150.358 671 150.358 670.688 150.358 670.5 150.132 670.5 149.905L670.5 143.564C670.5 143.281 670.688 143.111 671 143.111 671.25 143.111 671.5 143.281 671.5 143.564ZM671.5 154.435 671.5 160.776C671.5 161.002 671.25 161.229 671 161.229 670.688 161.229 670.5 161.002 670.5 160.776L670.5 154.435C670.5 154.151 670.688 153.982 671 153.982 671.25 153.982 671.5 154.151 671.5 154.435ZM671.5 165.305 671.5 171.646C671.5 171.872 671.25 172.099 671 172.099 670.688 172.099 670.5 171.872 670.5 171.646L670.5 165.305C670.5 165.022 670.688 164.852 671 164.852 671.25 164.852 671.5 165.022 671.5 165.305ZM671.5 176.175 671.5 182.516C671.5 182.743 671.25 182.969 671 182.969 670.688 182.969 670.5 182.743 670.5 182.516L670.5 176.175C670.5 175.892 670.688 175.722 671 175.722 671.25 175.722 671.5 175.892 671.5 176.175ZM671.5 187.046 671.5 193.047C671.5 193.274 671.25 193.5 671 193.5 670.688 193.5 670.5 193.274 670.5 193.047L670.5 187.046C670.5 186.763 670.688 186.593 671 186.593 671.25 186.593 671.5 186.763 671.5 187.046Z" stroke="#7F7F7F" stroke-width="0" stroke-linejoin="round" stroke-miterlimit="10" fill="#7F7F7F" fill-rule="evenodd"/><path d="M675 191 671.085 199 667 191 675 191Z" fill="#7F7F7F" fill-rule="evenodd"/><rect x="686" y="199" width="109" height="51" fill="#00B050"/><rect x="686.5" y="199.5" width="109" height="51" stroke="#000000" stroke-width="0.833386" stroke-linecap="round" stroke-linejoin="round" stroke-miterlimit="10" fill="none"/><text fill="#FFFFFF" font-family="Calibri,Calibri_MSFontService,sans-serif" font-weight="400" font-size="15" transform="translate(730.223 221)">RFE<tspan fill="#000000" font-weight="700" font-size="15" x="-38.8333" y="18">rfeAbstractApi.h</tspan></text><path d="M0 0 0.000104987 69" stroke="#000000" stroke-width="0.833386" stroke-linecap="round" stroke-linejoin="round" stroke-miterlimit="10" fill="none" fill-rule="evenodd" transform="matrix(1 0 0 -1 640.5 192.5)"/><path d="M644 191 640.085 199 636 191 644 191Z" fill-rule="evenodd"/><path d="M0 0 0.000104987 69" stroke="#000000" stroke-width="0.833386" stroke-linecap="round" stroke-linejoin="round" stroke-miterlimit="10" fill="none" fill-rule="evenodd" transform="matrix(1 0 0 -1 727.5 192.5)"/><path d="M731 191 727.085 199 723 191 731 191Z" fill-rule="evenodd"/><rect x="617" y="462" width="143" height="37" fill="#FFFFFF"/><rect x="617.5" y="462.5" width="143" height="37" stroke="#000000" stroke-width="0.833386" stroke-linecap="round" stroke-linejoin="round" stroke-miterlimit="10" fill="none"/><text font-family="Calibri,Calibri_MSFontService,sans-serif" font-weight="400" font-size="15" transform="translate(641.89 477)">Shared Memory<tspan font-size="15" x="-3" y="18">Command Buffer</tspan></text><path d="M0 0 0.000104987 42" stroke="#000000" stroke-width="0.833386" stroke-linecap="round" stroke-linejoin="round" stroke-miterlimit="10" fill="none" fill-rule="evenodd" transform="matrix(1 0 0 -1 688.5 456.5)"/><path d="M692 455 688.426 462 685 455 692 455Z" fill-rule="evenodd"/><path d="M685 415 688.426 407 692 415 685 415Z" fill-rule="evenodd"/><rect x="526" y="527" width="323" height="192" fill="#FFFFFF"/><rect x="526.5" y="527.5" width="323" height="192" stroke="#000000" stroke-width="0.833386" stroke-linecap="round" stroke-linejoin="round" stroke-miterlimit="10" fill="none"/><text font-family="Calibri,Calibri_MSFontService,sans-serif" font-weight="700" font-size="12" transform="translate(531.557 543)">RFE<tspan font-size="12" x="18.1667" y="0">-</tspan><tspan font-size="12" x="21.8334" y="0">M7</tspan></text><rect x="614.5" y="555.5" width="148" height="133" stroke="#000000" stroke-width="0.833386" stroke-linecap="round" stroke-linejoin="round" stroke-miterlimit="10" fill="#B7DDE8"/><text font-family="Calibri,Calibri_MSFontService,sans-serif" font-weight="400" font-size="12" transform="translate(654.39 571)">RFE Firmware<tspan font-weight="700" font-size="12" x="21.1666" y="14">*.bin</tspan></text><path d="M0 0 0.000104987 41" stroke="#000000" stroke-width="0.833386" stroke-linecap="round" stroke-linejoin="round" stroke-miterlimit="10" fill="none" fill-rule="evenodd" transform="matrix(1 0 0 -1 688.5 546.5)"/><path d="M692 545 688.085 553 684 545 692 545Z" fill-rule="evenodd"/><path d="M684 506 688.085 498 692 506 684 506Z" fill-rule="evenodd"/><rect x="645" y="51" width="51" height="60" fill="#FFFFFF"/><path d="M651.5 62.5001C651.5 59.7386 660.678 57.5001 672 57.5001 683.322 57.5001 692.5 59.7386 692.5 62.5001 692.5 65.2615 683.322 67.5001 672 67.5001 660.678 67.5001 651.5 65.2615 651.5 62.5001Z" stroke="#000000" stroke-width="0" stroke-linejoin="round" stroke-miterlimit="10" fill="#FFFFFF" fill-rule="evenodd"/><path d="M651.5 62.5001C651.5 59.7386 660.678 57.5001 672 57.5001 683.322 57.5001 692.5 59.7386 692.5 62.5001 692.5 65.2615 683.322 67.5001 672 67.5001 660.678 67.5001 651.5 65.2615 651.5 62.5001Z" stroke="#000000" stroke-width="0.833386" stroke-linecap="round" stroke-linejoin="round" stroke-miterlimit="10" fill="none" fill-rule="evenodd"/><path d="M651.5 99.5001C651.5 96.7386 660.678 94.5001 672 94.5001 683.322 94.5001 692.5 96.7386 692.5 99.5001 692.5 102.261 683.322 104.5 672 104.5 660.678 104.5 651.5 102.261 651.5 99.5001Z" stroke="#000000" stroke-width="0" stroke-linejoin="round" stroke-miterlimit="10" fill="#FFFFFF" fill-rule="evenodd"/><path d="M651.5 99.5001C651.5 96.7386 660.678 94.5001 672 94.5001 683.322 94.5001 692.5 96.7386 692.5 99.5001 692.5 102.261 683.322 104.5 672 104.5 660.678 104.5 651.5 102.261 651.5 99.5001Z" stroke="#000000" stroke-width="0.833386" stroke-linecap="round" stroke-linejoin="round" stroke-miterlimit="10" fill="none" fill-rule="evenodd"/><path d="M651.5 63.5001 651.5 98.5001" stroke="#000000" stroke-width="0.833386" stroke-linecap="round" stroke-linejoin="round" stroke-miterlimit="10" fill="none" fill-rule="evenodd"/><path d="M691.5 63.5001 691.5 98.5001" stroke="#000000" stroke-width="0.833386" stroke-linecap="round" stroke-linejoin="round" stroke-miterlimit="10" fill="none" fill-rule="evenodd"/><rect x="652" y="89" width="39" height="10" fill="#FFFFFF"/><text font-family="Calibri,Calibri_MSFontService,sans-serif" font-weight="400" font-size="11" transform="translate(664.89 81)">RFE <tspan font-size="11" x="-5.33331" y="12">Config</tspan></text></g></svg>