<?xml version="1.0" encoding="UTF-8" standalone="no"?>
<!DOCTYPE svg PUBLIC "-//W3C//DTD SVG 1.1//EN" "http://www.w3.org/Graphics/SVG/1.1/DTD/svg11.dtd">
<!-- Generated by Microsoft Visio, SVG Export RFE_FW_Radar_Cycle_FSM.svg Page-1 -->
<svg xmlns="http://www.w3.org/2000/svg" xmlns:xlink="http://www.w3.org/1999/xlink" xmlns:ev="http://www.w3.org/2001/xml-events"
		xmlns:v="http://schemas.microsoft.com/visio/2003/SVGExtensions/" width="19.4079in" height="3.27941in"
		viewBox="0 0 1397.37 236.118" xml:space="preserve" color-interpolation-filters="sRGB" class="st14">
	<v:documentProperties v:langID="1033" v:viewMarkup="false"/>

	<style type="text/css">
	<![CDATA[
		.st1 {fill:#4672c4;stroke:#c7c8c8;stroke-width:0.25}
		.st2 {fill:#feffff;font-family:Calibri;font-size:0.75em}
		.st3 {font-size:1em}
		.st4 {font-size:0.888885em}
		.st5 {marker-end:url(#mrkr4-39);stroke:#4672c4;stroke-linecap:round;stroke-linejoin:round;stroke-width:1}
		.st6 {fill:#4672c4;fill-opacity:1;stroke:#4672c4;stroke-opacity:1;stroke-width:0.28409090909091}
		.st7 {fill:#ffffff;stroke:none;stroke-linecap:butt;stroke-width:7.2}
		.st8 {fill:#3c63ac;font-family:Calibri;font-size:0.75em}
		.st9 {fill:none;stroke:none;stroke-width:0.25}
		.st10 {fill:#4672c4;font-family:Calibri;font-size:0.75em}
		.st11 {fill:#3c63ac;font-family:Calibri;font-size:0.833336em}
		.st12 {stroke:#4672c4;stroke-linecap:round;stroke-linejoin:round;stroke-width:1}
		.st13 {fill:#3c63ac;font-family:Calibri;font-size:0.666664em}
		.st14 {fill:none;fill-rule:evenodd;font-size:12px;overflow:visible;stroke-linecap:square;stroke-miterlimit:3}
	]]>
	</style>

	<defs id="Markers">
		<g id="lend4">
			<path d="M 2 1 L 0 0 L 2 -1 L 2 1 " style="stroke:none"/>
		</g>
		<marker id="mrkr4-39" class="st6" v:arrowType="4" v:arrowSize="2" v:setback="7.04" refX="-7.04" orient="auto"
				markerUnits="strokeWidth" overflow="visible">
			<use xlink:href="#lend4" transform="scale(-3.52,-3.52) "/>
		</marker>
	</defs>
	<g v:mID="0" v:index="1" v:groupContext="foregroundPage">
		<title>Page-1</title>
		<v:pageProperties v:drawingScale="0.0393701" v:pageScale="0.0393701" v:drawingUnits="24" v:shadowOffsetX="8.50394"
				v:shadowOffsetY="-8.50394"/>
		<v:layer v:name="Connector" v:index="0"/>
		<g id="group8003-1" transform="translate(0.25,-66.127)" v:mID="8003" v:groupContext="group">
			<title>Sheet.8003</title>
			<g id="shape7002-2" v:mID="7002" v:groupContext="shape" transform="translate(69.6676,-42.6287)">
				<title>Ellipse.1049</title>
				<desc>Radar Cycle Begin</desc>
				<v:userDefs>
					<v:ud v:nameU="visVersion" v:val="VT0(15):26"/>
				</v:userDefs>
				<v:textBlock v:margins="rect(4,4,4,4)" v:tabSpace="42.5197"/>
				<v:textRect cx="32.5655" cy="214.408" width="56.99" height="37.993"/>
				<path d="M0 214.41 A32.5655 21.7103 0 1 1 65.13 214.41 A32.5655 21.7103 0 1 1 0 214.41 Z" class="st1"/>
				<text x="11.25" y="211.71" class="st2" v:langID="1033"><v:paragraph v:horizAlign="1"/><v:tabList/>Radar Cycle<v:newlineChar/><tspan
							x="22.36" dy="1.2em" class="st3">B</tspan><tspan class="st3" v:langID="1043">egin</tspan></text>			</g>
			<g id="shape7003-7" v:mID="7003" v:groupContext="shape" transform="translate(451.625,-42.6287)">
				<title>Ellipse.1050</title>
				<desc>Chirp Sequence Init</desc>
				<v:userDefs>
					<v:ud v:nameU="visVersion" v:val="VT0(15):26"/>
				</v:userDefs>
				<v:textBlock v:margins="rect(4,4,4,4)" v:tabSpace="42.5197"/>
				<v:textRect cx="36.8504" cy="214.408" width="64.49" height="37.993"/>
				<path d="M0 214.41 A36.8504 21.7103 0 0 1 73.7 214.41 A36.8504 21.7103 0 1 1 0 214.41 Z" class="st1"/>
				<text x="27.12" y="211.71" class="st2" v:langID="1033"><v:paragraph v:horizAlign="1"/><v:tabList/>Chirp <tspan
							x="12.01" dy="1.2em" class="st3">Sequence Init</tspan></text>			</g>
			<g id="shape7004-11" v:mID="7004" v:groupContext="shape" transform="translate(556.178,-42.6287)">
				<title>Ellipse.1051</title>
				<desc>Calibration</desc>
				<v:userDefs>
					<v:ud v:nameU="visVersion" v:val="VT0(15):26"/>
				</v:userDefs>
				<v:textBlock v:margins="rect(4,4,4,4)" v:tabSpace="42.5197"/>
				<v:textRect cx="36.8504" cy="214.408" width="64.49" height="37.993"/>
				<path d="M0 214.41 A36.8504 21.7103 0 0 1 73.7 214.41 A36.8504 21.7103 0 1 1 0 214.41 Z" class="st1"/>
				<text x="16.86" y="217.11" class="st2" v:langID="1033"><v:paragraph v:horizAlign="1"/><v:tabList/>C<tspan
							class="st3" v:langID="1043">alibration</tspan></text>			</g>
			<g id="shape7005-15" v:mID="7005" v:groupContext="shape" transform="translate(651.916,-42.6287)">
				<title>Ellipse.1052</title>
				<desc>Chirp Sequence (Start)(Sequence)(End)</desc>
				<v:userDefs>
					<v:ud v:nameU="visVersion" v:val="VT0(15):26"/>
				</v:userDefs>
				<v:textBlock v:margins="rect(4,4,4,4)" v:tabSpace="42.5197"/>
				<v:textRect cx="36.8504" cy="214.408" width="64.49" height="37.993"/>
				<path d="M0 214.41 A36.8504 21.7103 0 0 1 73.7 214.41 A36.8504 21.7103 0 1 1 0 214.41 Z" class="st1"/>
				<text x="27.12" y="201.51" class="st2" v:langID="1033"><v:paragraph v:horizAlign="1"/><v:tabList/>Ch<tspan
							class="st3" v:langID="1043">irp </tspan><tspan x="19.07" dy="1.2em" class="st3" v:langID="1043">Sequence<v:newlineChar/></tspan><tspan
							x="9.58" dy="1.238em" class="st4">(Start)(Sequence</tspan><tspan x="27.06" dy="1.312em" class="st4">)(End)</tspan></text>			</g>
			<g id="shape7006-22" v:mID="7006" v:groupContext="shape" transform="translate(825.271,-42.6287)">
				<title>Ellipse.1053</title>
				<desc>BIst + fault parser</desc>
				<v:userDefs>
					<v:ud v:nameU="visVersion" v:val="VT0(15):26"/>
				</v:userDefs>
				<v:textBlock v:margins="rect(4,4,4,4)" v:tabSpace="42.5197"/>
				<v:textRect cx="36.8504" cy="214.408" width="64.49" height="37.993"/>
				<path d="M0 214.41 A36.8504 21.7103 0 0 1 73.7 214.41 A36.8504 21.7103 0 1 1 0 214.41 Z" class="st1"/>
				<text x="17.29" y="211.71" class="st2" v:langID="1033"><v:paragraph v:horizAlign="1"/><v:tabList/>B<tspan
							class="st3" v:langID="1043">Ist </tspan>+ fault <tspan x="25.19" dy="1.2em" class="st3">parser</tspan></text>			</g>
			<g id="shape7007-27" v:mID="7007" v:groupContext="shape" transform="translate(1115.55,-42.6287)">
				<title>Ellipse.1054</title>
				<desc>idle</desc>
				<v:userDefs>
					<v:ud v:nameU="visVersion" v:val="VT0(15):26"/>
				</v:userDefs>
				<v:textBlock v:margins="rect(4,4,4,4)" v:tabSpace="42.5197"/>
				<v:textRect cx="36.8504" cy="214.408" width="64.49" height="37.993"/>
				<path d="M0 214.41 A36.8504 21.7103 0 0 1 73.7 214.41 A36.8504 21.7103 0 1 1 0 214.41 Z" class="st1"/>
				<text x="30.18" y="217.11" class="st2" v:langID="1043"><v:paragraph v:horizAlign="1"/><v:tabList/>idle</text>			</g>
			<g id="shape7008-30" v:mID="7008" v:groupContext="shape" transform="translate(1208.66,-42.6287)">
				<title>Ellipse.1055</title>
				<desc>cmdExecutionBuffer</desc>
				<v:userDefs>
					<v:ud v:nameU="visVersion" v:val="VT0(15):26"/>
				</v:userDefs>
				<v:textBlock v:margins="rect(4,4,4,4)" v:tabSpace="42.5197"/>
				<v:textRect cx="41.8699" cy="214.408" width="73.28" height="37.993"/>
				<path d="M0 214.41 A41.8699 21.7103 0 0 1 83.74 214.41 A41.8699 21.7103 0 1 1 0 214.41 Z" class="st1"/>
				<text x="9.89" y="211.71" class="st2" v:langID="1043"><v:paragraph v:horizAlign="1"/><v:tabList/>cmdExecutionBuf<tspan
							x="36.69" dy="1.2em" class="st3">fer</tspan></text>			</g>
			<g id="shape7009-34" v:mID="7009" v:groupContext="shape" v:layerMember="0" transform="translate(629.879,-57.2524)">
				<title>Dynamic connector.1056</title>
				<path d="M0 229.03 L15 229.03" class="st5"/>
			</g>
			<g id="shape7010-40" v:mID="7010" v:groupContext="shape" v:layerMember="0" transform="translate(725.018,-57.2524)">
				<title>Dynamic connector.1057</title>
				<path d="M0.6 229.03 L6.54 229.03" class="st5"/>
			</g>
			<g id="shape7011-45" v:mID="7011" v:groupContext="shape" v:layerMember="0" transform="translate(898.374,-57.2524)">
				<title>Dynamic connector.1058</title>
				<path d="M0.6 229.03 L6.54 229.03" class="st5"/>
			</g>
			<g id="shape7012-50" v:mID="7012" v:groupContext="shape" v:layerMember="0" transform="translate(1189.25,-57.2524)">
				<title>Dynamic connector.1059</title>
				<path d="M0 229.03 L12.37 229.03" class="st5"/>
			</g>
			<g id="shape7013-55" v:mID="7013" v:groupContext="shape" v:layerMember="0" transform="translate(488.476,-36.497)">
				<title>Dynamic connector.1061</title>
				<desc>calibrationDuration = 0</desc>
				<v:textBlock v:margins="rect(4,4,4,4)" v:tabSpace="42.5197"/>
				<v:textRect cx="104.625" cy="240.593" width="102.54" height="18.8036"/>
				<path d="M0 229.99 L0 239.28 L215.4 239.28 L215.4 235.12" class="st5"/>
				<rect v:rectContext="textBkgnd" x="58.3748" y="235.193" width="92.5005" height="10.7998" class="st7"/>
				<text x="66.51" y="243.29" class="st8" v:langID="1043"><v:paragraph v:horizAlign="1"/><v:tabList/>calibrationDuration =<tspan
							class="st3" v:langID="1033"> </tspan>0</text>			</g>
			<g id="shape7014-63" v:mID="7014" v:groupContext="shape" v:layerMember="0" transform="translate(775.444,-35.5421)">
				<title>Dynamic connector.1062</title>
				<desc>bistDuration = 0</desc>
				<v:textBlock v:margins="rect(4,4,4,4)" v:tabSpace="42.5197"/>
				<v:textRect cx="86.6779" cy="239.638" width="68.75" height="18.8036"/>
				<path d="M0 229.03 L0 239.64 L173.36 239.64 L173.36 236.07" class="st5"/>
				<rect v:rectContext="textBkgnd" x="57.3224" y="234.238" width="58.7109" height="10.7998" class="st7"/>
				<text x="57.32" y="242.34" class="st8" v:langID="1043"><v:paragraph v:horizAlign="1"/><v:tabList/>bistDuration = 0</text>			</g>
			<g id="shape7015-70" v:mID="7015" v:groupContext="shape" v:layerMember="0" transform="translate(525.326,-57.2524)">
				<title>Dynamic connector.1063</title>
				<path d="M0 229.03 L23.81 229.03" class="st5"/>
			</g>
			<g id="shape7016-75" v:mID="7016" v:groupContext="shape" v:layerMember="0" transform="translate(1292.4,-57.2524)">
				<title>Dynamic connector.1064</title>
				<path d="M0 229.03 L23.73 229.03" class="st5"/>
			</g>
			<g id="shape7017-80" v:mID="7017" v:groupContext="shape" transform="translate(1323.17,-42.6287)">
				<title>Ellipse.1065</title>
				<desc>configUpdate</desc>
				<v:userDefs>
					<v:ud v:nameU="visVersion" v:val="VT0(15):26"/>
				</v:userDefs>
				<v:textBlock v:margins="rect(4,4,4,4)" v:tabSpace="42.5197"/>
				<v:textRect cx="36.8504" cy="214.408" width="64.49" height="37.993"/>
				<path d="M0 214.41 A36.8504 21.7103 0 0 1 73.7 214.41 A36.8504 21.7103 0 1 1 0 214.41 Z" class="st1"/>
				<text x="12.17" y="217.11" class="st2" v:langID="1043"><v:paragraph v:horizAlign="1"/><v:tabList/>configUpdate</text>			</g>
			<g id="shape7018-83" v:mID="7018" v:groupContext="shape" v:layerMember="0" transform="translate(1360.02,-35.5421)">
				<title>Dynamic connector.1066</title>
				<desc>radarCycleIndex &#60; radarCycleCount</desc>
				<v:textBlock v:margins="rect(4,4,4,4)" v:tabSpace="42.5197"/>
				<v:textRect cx="-643.994" cy="328.385" width="138.41" height="18.8036"/>
				<path d="M0 229.03 L0 328.39 L-1257.78 328.39 L-1257.78 236.07" class="st5"/>
				<rect v:rectContext="textBkgnd" x="-708.177" y="322.985" width="128.364" height="10.7998" class="st7"/>
				<text x="-708.18" y="331.09" class="st8" v:langID="1043"><v:paragraph v:horizAlign="1"/><v:tabList/>radarCycleIndex &#60; radarCycleCount</text>			</g>
			<g id="shape7019-90" v:mID="7019" v:groupContext="shape" transform="translate(1240.64,-98.2359)">
				<title>Sheet.7019</title>
				<desc>to Main FSM</desc>
				<v:textBlock v:margins="rect(4,4,4,4)" v:tabSpace="42.5197"/>
				<v:textRect cx="28.0663" cy="223.263" width="56.14" height="25.7096"/>
				<rect x="0" y="210.408" width="56.1326" height="25.7096" class="st9"/>
				<text x="4.77" y="225.96" class="st10" v:langID="1043"><v:paragraph v:horizAlign="1"/><v:tabList/>to Main FSM</text>			</g>
			<g id="shape7020-93" v:mID="7020" v:groupContext="shape" transform="translate(738.593,-42.6287)">
				<title>Ellipse.1069</title>
				<desc>Monitoring &#38; Metadata</desc>
				<v:userDefs>
					<v:ud v:nameU="visVersion" v:val="VT0(15):26"/>
				</v:userDefs>
				<v:textBlock v:margins="rect(4,4,4,4)" v:tabSpace="42.5197"/>
				<v:textRect cx="36.8504" cy="214.408" width="64.49" height="37.993"/>
				<path d="M0 214.41 A36.8504 21.7103 0 0 1 73.7 214.41 A36.8504 21.7103 0 1 1 0 214.41 Z" class="st1"/>
				<text x="12.18" y="211.71" class="st2" v:langID="1033"><v:paragraph v:horizAlign="1"/><v:tabList/>Monitoring &#38;<v:newlineChar/><tspan
							x="18.92" dy="1.2em" class="st3">Metadata</tspan></text>			</g>
			<g id="shape7021-97" v:mID="7021" v:groupContext="shape" v:layerMember="0" transform="translate(811.696,-57.2524)">
				<title>Dynamic connector.1070</title>
				<path d="M0.6 229.03 L6.54 229.03" class="st5"/>
			</g>
			<g id="shape7022-102" v:mID="7022" v:groupContext="shape" transform="translate(-3.9968E-15,-46.7832)">
				<title>Sheet.7022</title>
				<desc>from Main FSM</desc>
				<v:textBlock v:margins="rect(4,4,4,4)" v:tabSpace="42.5197"/>
				<v:textRect cx="31.2905" cy="217.683" width="62.59" height="36.8694"/>
				<rect x="0" y="199.248" width="62.581" height="36.8694" class="st9"/>
				<text x="22.38" y="214.98" class="st10" v:langID="1033"><v:paragraph v:horizAlign="1"/><v:tabList/>from<tspan
							class="st3" v:langID="1043"> </tspan><tspan x="12.89" dy="1.2em" class="st3" v:langID="1043">Main FSM</tspan></text>			</g>
			<g id="shape7023-107" v:mID="7023" v:groupContext="shape" v:layerMember="0" transform="translate(1093.5,-64.339)">
				<title>Dynamic connector.7023</title>
				<path d="M0 236.12 L0 190.37 L136.37 190.37" class="st5"/>
			</g>
			<g id="shape7024-112" v:mID="7024" v:groupContext="shape" transform="translate(1074.21,-111.154)">
				<title>Sheet.7024</title>
				<desc>Repetition End or rfe_stopRadarCycles()</desc>
				<v:textBlock v:margins="rect(4,4,4,4)" v:tabSpace="42.5197"/>
				<v:textRect cx="83.828" cy="230.894" width="167.66" height="10.4467"/>
				<rect x="0" y="225.671" width="167.656" height="10.4467" class="st9"/>
				<text x="10.59" y="233.59" class="st10" v:langID="1043"><v:paragraph v:horizAlign="1"/><v:tabList/>Repetition End or rfe_stopRadarCycles()</text>			</g>
			<g id="shape7025-115" v:mID="7025" v:groupContext="shape" transform="translate(362.347,-42.6287)">
				<title>Ellipse.1074</title>
				<desc>Power On</desc>
				<v:userDefs>
					<v:ud v:nameU="visVersion" v:val="VT0(15):26"/>
				</v:userDefs>
				<v:textBlock v:margins="rect(4,4,4,4)" v:tabSpace="42.5197"/>
				<v:textRect cx="32.5655" cy="214.408" width="56.99" height="37.993"/>
				<path d="M0 214.41 A32.5655 21.7103 0 1 1 65.13 214.41 A32.5655 21.7103 0 1 1 0 214.41 Z" class="st1"/>
				<text x="14.48" y="217.11" class="st2" v:langID="1033"><v:paragraph v:horizAlign="1"/><v:tabList/>Power On</text>			</g>
			<g id="shape7026-118" v:mID="7026" v:groupContext="shape" v:layerMember="0" transform="translate(134.799,-57.2524)">
				<title>Dynamic connector.1075</title>
				<path d="M0 229.03 L25.53 229.03" class="st5"/>
			</g>
			<g id="shape7027-123" v:mID="7027" v:groupContext="shape" v:layerMember="0" transform="translate(427.478,-57.2524)">
				<title>Dynamic connector.1076</title>
				<path d="M0 229.03 L17.11 229.03" class="st5"/>
			</g>
			<g id="shape7028-128" v:mID="7028" v:groupContext="shape" transform="translate(911.949,-42.6287)">
				<title>Ellipse.1077</title>
				<desc>Power Off</desc>
				<v:userDefs>
					<v:ud v:nameU="visVersion" v:val="VT0(15):26"/>
				</v:userDefs>
				<v:textBlock v:margins="rect(4,4,4,4)" v:tabSpace="42.5197"/>
				<v:textRect cx="36.8504" cy="214.408" width="64.49" height="37.993"/>
				<path d="M0 214.41 A36.8504 21.7103 0 0 1 73.7 214.41 A36.8504 21.7103 0 1 1 0 214.41 Z" class="st1"/>
				<text x="18.38" y="217.11" class="st2" v:langID="1033"><v:paragraph v:horizAlign="1"/><v:tabList/>Power Off</text>			</g>
			<g id="shape7029-131" v:mID="7029" v:groupContext="shape" transform="translate(167.364,-42.6287)">
				<title>Ellipse.1079</title>
				<desc>Start Offset</desc>
				<v:userDefs>
					<v:ud v:nameU="visVersion" v:val="VT0(15):26"/>
				</v:userDefs>
				<v:textBlock v:margins="rect(4,4,4,4)" v:tabSpace="42.5197"/>
				<v:textRect cx="32.5655" cy="214.408" width="56.99" height="37.993"/>
				<path d="M0 214.41 A32.5655 21.7103 0 1 1 65.13 214.41 A32.5655 21.7103 0 1 1 0 214.41 Z" class="st1"/>
				<text x="11.51" y="217.11" class="st2" v:langID="1033"><v:paragraph v:horizAlign="1"/><v:tabList/>Start Offset</text>			</g>
			<g id="shape7030-134" v:mID="7030" v:groupContext="shape" v:layerMember="0" transform="translate(232.495,-57.2524)">
				<title>Dynamic connector.1050</title>
				<path d="M0 229.03 L30.67 229.03" class="st5"/>
			</g>
			<g id="shape7031-139" v:mID="7031" v:groupContext="shape" v:layerMember="0" transform="translate(9.11854,-71.7684)">
				<title>Dynamic connector.1052</title>
				<path d="M0 242.86 L53.51 243.47" class="st5"/>
			</g>
			<g id="shape7032-144" v:mID="7032" v:groupContext="shape" v:layerMember="0" transform="translate(102.233,-78.9627)">
				<title>Dynamic connector.1053</title>
				<desc>Start Offset Duration = 0</desc>
				<v:textBlock v:margins="rect(4,4,4,4)" v:tabSpace="42.5197"/>
				<v:textRect cx="100.267" cy="216.359" width="109.75" height="20.0036"/>
				<path d="M0 229.03 L0 216.36 L200.53 216.36 L200.53 221.99" class="st5"/>
				<rect v:rectContext="textBkgnd" x="50.5285" y="210.359" width="99.4779" height="12.0001" class="st7"/>
				<text x="50.53" y="219.36" class="st11" v:langID="1033"><v:paragraph v:horizAlign="1"/><v:tabList/>Start Offset Duration = 0</text>			</g>
			<g id="shape7033-151" v:mID="7033" v:groupContext="shape" transform="translate(270.202,-42.6287)">
				<title>Ellipse.1034</title>
				<desc>Pdc On</desc>
				<v:userDefs>
					<v:ud v:nameU="visVersion" v:val="VT0(15):26"/>
				</v:userDefs>
				<v:textBlock v:margins="rect(4,4,4,4)" v:tabSpace="42.5197"/>
				<v:textRect cx="32.5655" cy="214.408" width="56.99" height="37.993"/>
				<path d="M0 214.41 A32.5655 21.7103 0 1 1 65.13 214.41 A32.5655 21.7103 0 1 1 0 214.41 Z" class="st1"/>
				<text x="19.61" y="217.11" class="st2" v:langID="1033"><v:paragraph v:horizAlign="1"/><v:tabList/>Pdc On</text>			</g>
			<g id="shape7034-154" v:mID="7034" v:groupContext="shape" v:layerMember="0" transform="translate(335.333,-57.2524)">
				<title>Dynamic connector.1035</title>
				<path d="M0 229.03 L19.97 229.03" class="st5"/>
			</g>
			<g id="shape7035-159" v:mID="7035" v:groupContext="shape" transform="translate(1011.1,-42.6287)">
				<title>Ellipse.7035</title>
				<desc>Pdc Off</desc>
				<v:userDefs>
					<v:ud v:nameU="visVersion" v:val="VT0(15):26"/>
				</v:userDefs>
				<v:textBlock v:margins="rect(4,4,4,4)" v:tabSpace="42.5197"/>
				<v:textRect cx="36.8504" cy="214.408" width="64.49" height="37.993"/>
				<path d="M0 214.41 A36.8504 21.7103 0 0 1 73.7 214.41 A36.8504 21.7103 0 1 1 0 214.41 Z" class="st1"/>
				<text x="23.52" y="217.11" class="st2" v:langID="1033"><v:paragraph v:horizAlign="1"/><v:tabList/>Pdc Off</text>			</g>
			<g id="shape7036-162" v:mID="7036" v:groupContext="shape" v:layerMember="0" transform="translate(985.65,-57.2524)">
				<title>Dynamic connector.7036</title>
				<path d="M0 229.03 L18.41 229.03" class="st5"/>
			</g>
			<g id="shape7037-167" v:mID="7037" v:groupContext="shape" v:layerMember="0" transform="translate(1084.8,-57.2524)">
				<title>Dynamic connector.1038</title>
				<path d="M0 229.03 L23.71 229.03" class="st5"/>
			</g>
			<g id="group7038-172" transform="translate(302.208,0)" v:mID="7038" v:groupContext="group">
				<title>Sheet.7038</title>
				<g id="shape7039-173" v:mID="7039" v:groupContext="shape" v:layerMember="0"
						transform="translate(948.013,-2.84217E-14)">
					<title>Dynamic connector.1060</title>
					<desc>chirpSequenceIndex &#60; chirpSequenceCount</desc>
					<v:textBlock v:margins="rect(4,4,4,4)" v:tabSpace="42.5197"/>
					<v:textRect cx="-495.041" cy="236.118" width="168.76" height="18.8036"/>
					<path d="M0 236.12 L-947.45 236.12 L-947.45 200.53" class="st5"/>
					<rect v:rectContext="textBkgnd" x="-574.402" y="230.718" width="158.722" height="10.7998" class="st7"/>
					<text x="-574.4" y="238.82" class="st8" v:langID="1043"><v:paragraph v:horizAlign="1"/><v:tabList/>chirpSequenceIndex &#60; chirpSequenceCount</text>				</g>
				<g id="shape7040-180" v:mID="7040" v:groupContext="shape" transform="translate(1184.43,195.18) rotate(90.4103)">
					<title>Sheet.7040</title>
					<path d="M0 236.12 L42.63 236.12" class="st12"/>
				</g>
			</g>
			<g id="shape7041-183" v:mID="7041" v:groupContext="shape" v:layerMember="0" transform="translate(1084.8,-64.339)">
				<title>Dynamic connector.1072</title>
				<desc>On FuSa Fault</desc>
				<v:textBlock v:margins="rect(4,4,4,4)" v:tabSpace="42.5197"/>
				<v:textRect cx="-41.2291" cy="198.504" width="60.37" height="18.8036"/>
				<path d="M0 236.12 L19.76 236.12 L19.76 201.74 L11.06 201.74 A2.3622 2.3622 -180 0 0 6.33 201.74 L-90.52 201.74 L-90.52
							 181.18" class="st5"/>
				<rect v:rectContext="textBkgnd" x="-66.39" y="193.104" width="50.3218" height="10.7998" class="st7"/>
				<text x="-66.39" y="201.2" class="st8" v:langID="1033"><v:paragraph v:horizAlign="1"/><v:tabList/>On FuSa Fault</text>			</g>
			<g id="shape7042-190" v:mID="7042" v:groupContext="shape" transform="translate(957.435,-126.32)">
				<title>Ellipse.1036</title>
				<desc>FuSa Fault Recovery</desc>
				<v:userDefs>
					<v:ud v:nameU="visVersion" v:val="VT0(15):26"/>
				</v:userDefs>
				<v:textBlock v:margins="rect(4,4,4,4)" v:tabSpace="42.5197"/>
				<v:textRect cx="36.8504" cy="214.408" width="64.49" height="37.993"/>
				<path d="M0 214.41 A36.8504 21.7103 0 0 1 73.7 214.41 A36.8504 21.7103 0 1 1 0 214.41 Z" class="st1"/>
				<text x="18.05" y="211.71" class="st2" v:langID="1033"><v:paragraph v:horizAlign="1"/><v:tabList/>FuSa Fault <tspan
							x="20.01" dy="1.2em" class="st3">Recovery</tspan></text>			</g>
			<g id="shape7043-194" v:mID="7043" v:groupContext="shape" v:layerMember="0" transform="translate(1031.14,-141.603)">
				<title>Dynamic connector.1037</title>
				<desc>Recovery successful</desc>
				<v:textBlock v:margins="rect(4,4,4,4)" v:tabSpace="42.5197"/>
				<v:textRect cx="28.6299" cy="229.031" width="44.44" height="27.2035"/>
				<path d="M0 229.69 L50.22 228.53" class="st5"/>
				<rect v:rectContext="textBkgnd" x="11.3178" y="219.432" width="34.6245" height="19.1997" class="st7"/>
				<text x="13.67" y="226.63" class="st13" v:langID="1033"><v:paragraph v:horizAlign="1"/><v:tabList/>Recovery<v:newlineChar/><tspan
							x="11.32" dy="1.2em" class="st3"> </tspan>successful</text>			</g>
			<g id="shape7044-202" v:mID="7044" v:groupContext="shape" transform="translate(1084.99,-135.176)">
				<title>Sheet.7044</title>
				<desc>To Configured state</desc>
				<v:textBlock v:margins="rect(4,4,4,4)" v:tabSpace="42.5197"/>
				<v:textRect cx="36.8504" cy="223.263" width="73.71" height="25.7096"/>
				<rect x="0" y="210.408" width="73.7008" height="25.7096" class="st9"/>
				<text x="11.07" y="220.56" class="st10" v:langID="1033"><v:paragraph v:horizAlign="1"/><v:tabList/>To Configured <tspan
							x="27.68" dy="1.2em" class="st3">state</tspan></text>			</g>
			<g id="shape7045-206" v:mID="7045" v:groupContext="shape" v:layerMember="0" transform="translate(957.435,-155.117)">
				<title>Dynamic connector.7045</title>
				<desc>Recovery unsuccessful</desc>
				<v:textBlock v:margins="rect(4,4,4,4)" v:tabSpace="42.5197"/>
				<v:textRect cx="-45.3543" cy="243.204" width="52.85" height="27.2035"/>
				<path d="M0 243.2 L-83.67 243.2" class="st5"/>
				<rect v:rectContext="textBkgnd" x="-66.8696" y="233.605" width="43.0307" height="19.1997" class="st7"/>
				<text x="-60.32" y="240.8" class="st13" v:langID="1033"><v:paragraph v:horizAlign="1"/><v:tabList/>Recovery<v:newlineChar/><tspan
							x="-66.87" dy="1.2em" class="st3"> </tspan>unsuccessful</text>			</g>
			<g id="shape7046-214" v:mID="7046" v:groupContext="shape" transform="translate(816.199,-135.176)">
				<title>Sheet.7046</title>
				<desc>To FuSa Fault state</desc>
				<v:textBlock v:margins="rect(4,4,4,4)" v:tabSpace="42.5197"/>
				<v:textRect cx="28.0663" cy="223.263" width="56.14" height="25.7096"/>
				<rect x="0" y="210.408" width="56.1326" height="25.7096" class="st9"/>
				<text x="13.83" y="220.56" class="st10" v:langID="1033"><v:paragraph v:horizAlign="1"/><v:tabList/>To FuSa <tspan
							x="8.75" dy="1.2em" class="st3">Fault state</tspan></text>			</g>
		</g>
	</g>
</svg>
